<svg id="add-user-24px" xmlns="http://www.w3.org/2000/svg" width="24" height="24" viewBox="0 0 24 24">
  <path id="add-user-24px-2" data-name="add-user-24px" d="M12,12A6,6,0,1,0,6,6,6.018,6.018,0,0,0,12,12Zm4-6a4,4,0,1,1-4-4A4.012,4.012,0,0,1,16,6ZM12,23a.945.945,0,0,1-1,1H3a2.946,2.946,0,0,1-3-3,8.024,8.024,0,0,1,8-8h3a1,1,0,0,1,0,2H8a6.018,6.018,0,0,0-6,6,.945.945,0,0,0,1,1h8A.945.945,0,0,1,12,23Zm12-5a.945.945,0,0,1-1,1H19v4a1,1,0,0,1-2,0V19H13a1,1,0,0,1,0-2h4V13a1,1,0,0,1,2,0v4h4A.945.945,0,0,1,24,18Z"/>
</svg>
