<svg id="adjustments-24px" xmlns="http://www.w3.org/2000/svg" width="24" height="24" viewBox="0 0 24 24">
  <path id="adjustments-24px-2" data-name="adjustments-24px" d="M3,6H21a2.946,2.946,0,0,0,3-3,2.946,2.946,0,0,0-3-3H3A2.946,2.946,0,0,0,0,3,2.946,2.946,0,0,0,3,6ZM22,3a.945.945,0,0,1-1,1H18V2h3A.945.945,0,0,1,22,3ZM3,2H16V4H3A.945.945,0,0,1,2,3,.945.945,0,0,1,3,2ZM21,9H3a3,3,0,0,0,0,6H21a3,3,0,0,0,0-6ZM2,12a.945.945,0,0,1,1-1H5v2H3A.945.945,0,0,1,2,12Zm19,1H7V11H21a1,1,0,0,1,0,2Zm0,5H3a3,3,0,0,0,0,6H21a3,3,0,0,0,0-6ZM2,21a.945.945,0,0,1,1-1h8v2H3A.945.945,0,0,1,2,21Zm19,1H13V20h8a1,1,0,0,1,0,2Z"/>
</svg>
