<svg xmlns="http://www.w3.org/2000/svg" viewBox="0 0 24 24"><g id="Layer_2" data-name="Layer 2"><g id="Layer_1-2" data-name="Layer 1"><path d="M21,0H3A3,3,0,0,0,0,3V8a3,3,0,0,0,3,3H21a3,3,0,0,0,3-3V3A3,3,0,0,0,21,0Zm1,8a1,1,0,0,1-1,1H3A1,1,0,0,1,2,8V3A1,1,0,0,1,3,2H21a1,1,0,0,1,1,1ZM16,7a1,1,0,0,1-1,1H5A1,1,0,0,1,5,6H15A1,1,0,0,1,16,7Zm4,0a1,1,0,1,1-1-1A1,1,0,0,1,20,7Zm-5.5,5A2.5,2.5,0,1,0,17,14.5,2.5,2.5,0,0,0,14.5,12Zm0,3a.5.5,0,1,1,.5-.5A.5.5,0,0,1,14.5,15Zm9,5.89-.21.11.21.11a1,1,0,0,1,.44,1.34A1,1,0,0,1,23,23a.93.93,0,0,1-.45-.11L22,22.62V23a1,1,0,0,1-2,0v-.38l-.55.27A.93.93,0,0,1,19,23a1,1,0,0,1-.89-.55,1,1,0,0,1,.44-1.34l.21-.11-.21-.11a1,1,0,1,1,.9-1.78l.55.27V19a1,1,0,0,1,2,0v.38l.55-.27a1,1,0,1,1,.9,1.78Zm-14-2.5L8.24,19l1.21.61A1,1,0,0,1,9.89,21,1,1,0,0,1,9,21.5a.93.93,0,0,1-.45-.11L7,20.62V22a1,1,0,0,1-2,0V20.62l-1.55.77A.93.93,0,0,1,3,21.5,1,1,0,0,1,2.11,21a1,1,0,0,1,.44-1.34L3.76,19l-1.21-.61a1,1,0,0,1,.9-1.78L5,17.38V16a1,1,0,0,1,2,0v1.38l1.55-.77a1,1,0,1,1,.9,1.78Z"/></g></g></svg>