<svg xmlns="http://www.w3.org/2000/svg" viewBox="0 0 24 24"><g id="Layer_2" data-name="Layer 2"><g id="Layer_1-2" data-name="Layer 1"><path d="M21,0H3A3,3,0,0,0,0,3V21a3,3,0,0,0,3,3H21a3,3,0,0,0,3-3V3A3,3,0,0,0,21,0ZM3,2H21a1,1,0,0,1,1,1V4H17.5A2.5,2.5,0,0,0,15,6.5a.5.5,0,0,1-.5.5h-5A.5.5,0,0,1,9,6.5,2.5,2.5,0,0,0,6.5,4H2V3A1,1,0,0,1,3,2ZM21,22H3a1,1,0,0,1-1-1V6H6.5a.5.5,0,0,1,.5.5A2.5,2.5,0,0,0,9.5,9h5A2.5,2.5,0,0,0,17,6.5a.5.5,0,0,1,.5-.5H22V21A1,1,0,0,1,21,22Zm-3.29-8.71a1,1,0,0,1,0,1.42l-5,5a1,1,0,0,1-1.42,0l-5-5a1,1,0,0,1,1.42-1.42L11,16.59V12a1,1,0,0,1,2,0v4.59l3.29-3.3A1,1,0,0,1,17.71,13.29Z"/></g></g></svg>