<svg id="calendar-add-24px" xmlns="http://www.w3.org/2000/svg" width="24" height="24" viewBox="0 0 24 24">
  <path id="calendar-add-24px-2" data-name="calendar-add-24px" d="M21,2H19V1a1,1,0,0,0-2,0V2H7V1A.945.945,0,0,0,6,0,.945.945,0,0,0,5,1V2H3A2.946,2.946,0,0,0,0,5V21a2.946,2.946,0,0,0,3,3H21a2.946,2.946,0,0,0,3-3V5A2.946,2.946,0,0,0,21,2Zm0,2a.945.945,0,0,1,1,1V6H19V4ZM17,4V6H7V4ZM2,5A.945.945,0,0,1,3,4H5V6H2ZM22,21a.945.945,0,0,1-1,1H3a.945.945,0,0,1-1-1V8H22Zm-5-6a.945.945,0,0,1-1,1H13v3a1,1,0,0,1-2,0V16H8a1,1,0,0,1,0-2h3V11a1,1,0,0,1,2,0v3h3A.945.945,0,0,1,17,15Z"/>
</svg>
