<svg id="chart-grow-24px" xmlns="http://www.w3.org/2000/svg" width="24" height="24" viewBox="0 0 24 24">
  <path id="chart-grow-24px-2" data-name="chart-grow-24px" d="M23,22H22V11a.945.945,0,0,0-1-1H17a.945.945,0,0,0-1,1v2H13a.945.945,0,0,0-1,1v2H9a.945.945,0,0,0-1,1v2H5a.945.945,0,0,0-1,1v2H2V1A.945.945,0,0,0,1,0,.945.945,0,0,0,0,1V23a.945.945,0,0,0,1,1H23a1,1,0,0,0,0-2ZM18,12h2V22H18Zm-4,3h2v7H14V15Zm-4,3h2v4H10ZM6,21H8v1H6Zm-.7-5.3a.967.967,0,0,1,0-1.4L17.6,2H16a.945.945,0,0,1-1-1,.945.945,0,0,1,1-1h4a.6.6,0,0,1,.4.1,1.205,1.205,0,0,1,.5.5A.6.6,0,0,1,21,1V5a1,1,0,0,1-2,0V3.4L6.7,15.7a.967.967,0,0,1-1.4,0Z"/>
</svg>
