<svg id="cloudy-24px" xmlns="http://www.w3.org/2000/svg" width="24" height="24" viewBox="0 0 24 24">
  <path id="cloudy-24px-2" data-name="cloudy-24px" d="M19.8,14.1A6.691,6.691,0,0,0,18,10.8,7.047,7.047,0,0,0,11,4a6.957,6.957,0,0,0-7,7,9.27,9.27,0,0,0,.4,2.4A10.871,10.871,0,0,0,4,16a4,4,0,0,0,0,8H19a4.951,4.951,0,0,0,5-5A4.876,4.876,0,0,0,19.8,14.1ZM19,22H4a2,2,0,0,1,0-4,1.7,1.7,0,0,1,.7.1.955.955,0,0,0,1-.2,1.159,1.159,0,0,0,.4-1A2.483,2.483,0,0,1,6,16a5.986,5.986,0,0,1,11.7-1.8A5.039,5.039,0,0,0,14,19a1,1,0,0,0,2,0,2.989,2.989,0,0,1,2.9-3H19a3.076,3.076,0,0,1,3,3A2.946,2.946,0,0,1,19,22ZM11,6a5.071,5.071,0,0,1,4.5,2.8A8.525,8.525,0,0,0,12,8a7.876,7.876,0,0,0-6,2.7A5.028,5.028,0,0,1,11,6ZM0,11a.945.945,0,0,1,1-1H2a.945.945,0,0,1,1,1,.945.945,0,0,1-1,1H1A.945.945,0,0,1,0,11ZM3.2,4.6A.99.99,0,1,1,4.6,3.2l.7.7a.967.967,0,0,1,0,1.4.908.908,0,0,1-.7.3.908.908,0,0,1-.7-.3ZM10,2V1a.945.945,0,0,1,1-1,.945.945,0,0,1,1,1V2a.945.945,0,0,1-1,1A.945.945,0,0,1,10,2Zm6.7,3.3a.967.967,0,0,1,0-1.4l.7-.7a.99.99,0,0,1,1.4,1.4l-.7.7a.967.967,0,0,1-1.4,0ZM19,11a.945.945,0,0,1,1-1h1a.945.945,0,0,1,1,1,.945.945,0,0,1-1,1H20A.945.945,0,0,1,19,11Z"/>
</svg>
