<svg xmlns="http://www.w3.org/2000/svg" viewBox="0 0 24 24"><g id="Layer_2" data-name="Layer 2"><g id="Layer_1-2" data-name="Layer 1"><path d="M11,8.17a4.09,4.09,0,0,1,3.83,1h0A4,4,0,0,1,16,12a3.87,3.87,0,0,1-.15,1ZM8,12a4,4,0,0,0,4,4,3.87,3.87,0,0,0,1-.15L8.15,11A3.87,3.87,0,0,0,8,12Zm8.24,5.66h0l6.05,6.05a1,1,0,0,0,1.42,0,1,1,0,0,0,0-1.42l-2.55-2.55a9.24,9.24,0,0,0,.61-.79A12,12,0,0,0,20.49,3.51a1,1,0,0,0-1.42,1.42,10,10,0,0,1,1.27,12.59,7.7,7.7,0,0,1-.6.81L18.32,16.9a9.53,9.53,0,0,0,.57-.84,8,8,0,0,0-1.23-9.72,1,1,0,0,0-1.42,1.42,6,6,0,0,1,1.17,6.82,6.09,6.09,0,0,1-.52.89L7.76,6.34h0l-6-6A1,1,0,0,0,.29,1.71L2.84,4.26a9.24,9.24,0,0,0-.61.79A12,12,0,0,0,3.51,20.49a1,1,0,0,0,.71.29,1,1,0,0,0,.71-.29,1,1,0,0,0,0-1.42A10,10,0,0,1,3.66,6.48a7.7,7.7,0,0,1,.6-.81L5.68,7.1a9.53,9.53,0,0,0-.57.84,8,8,0,0,0,1.23,9.72,1,1,0,0,0,1.42,0,1,1,0,0,0,0-1.42A6,6,0,0,1,6.59,9.42a6.09,6.09,0,0,1,.52-.89Z"/></g></g></svg>