<svg id="drink-capuccino-24px" xmlns="http://www.w3.org/2000/svg" width="24" height="24" viewBox="0 0 24 24">
  <path id="drink-capuccino-24px-2" data-name="drink-capuccino-24px" d="M23,2H19V1a.945.945,0,0,0-1-1H3A.945.945,0,0,0,2,1V14.5A8.474,8.474,0,0,0,6.5,22H1a1,1,0,0,0,0,2H20a1,1,0,0,0,0-2H14.5A8.474,8.474,0,0,0,19,14.5v-.6A6.016,6.016,0,0,0,24,8V3A.945.945,0,0,0,23,2ZM7.6,8l5,5H10.4l-5-5Zm0,5H5.4L4,11.6V9.4Zm7.8,0-5-5h2.2L17,12.4V13ZM17,9.6,15.4,8H17ZM17,2V6H4V2Zm5,6a4.079,4.079,0,0,1-3,3.9V4h3Z"/>
</svg>
