<svg id="drink-milk-coffee-24px" xmlns="http://www.w3.org/2000/svg" width="18" height="24" viewBox="0 0 18 24">
  <path id="drink-milk-coffee-24px-2" data-name="drink-milk-coffee-24px" d="M18,1.1a1.136,1.136,0,0,0-.3-.8A.908.908,0,0,0,17,0H1A.908.908,0,0,0,.3.3a1.135,1.135,0,0,0-.3.8l2,22A.987.987,0,0,0,3,24H15a1.063,1.063,0,0,0,1-.9ZM7.4,22,3.7,18.3l-.1-.1-.3-3.5L10.6,22ZM8.6,8l6.2,6.2-.3,2.9L5.4,8Zm2.8,0h3.9L15,11.6Zm4.5-6-.4,4H2.5L2.1,2ZM3.8,21.3l.8.7H3.9Zm9.6.7L3,11.5,2.6,8.1,14.2,19.7h0L14.1,22Z"/>
</svg>
