<svg id="edit-2-24px" xmlns="http://www.w3.org/2000/svg" width="24" height="24" viewBox="0 0 24 24">
  <path id="edit-2-24px-2" data-name="edit-2-24px" d="M11,19H6a.945.945,0,0,1-1-1V13a.908.908,0,0,1,.3-.7l12-12a.967.967,0,0,1,1.4,0l5,5a.967.967,0,0,1,0,1.4l-12,12A.908.908,0,0,1,11,19ZM7,17h3.6l11-11L18,2.4,7,13.4Zm17,3V14a1,1,0,0,0-2,0v6a2.006,2.006,0,0,1-2,2H4a2.006,2.006,0,0,1-2-2V4A2.006,2.006,0,0,1,4,2h6a.945.945,0,0,0,1-1,.945.945,0,0,0-1-1H4A4.012,4.012,0,0,0,0,4V20a4.012,4.012,0,0,0,4,4H20A4.012,4.012,0,0,0,24,20Z"/>
</svg>
