<svg id="electricity-measurement-24px" xmlns="http://www.w3.org/2000/svg" width="24.071" height="24" viewBox="0 0 24.071 24">
  <path id="Path_180" data-name="Path 180" d="M31.029,35.765a1,1,0,0,1,1.211-.73l.76.188v-5.5a2,2,0,1,1,2,0v6l1.24.306a1,1,0,0,1-.48,1.942l-4-.99A1,1,0,0,1,31.029,35.765ZM38,44H35V41.778l.76.188a1,1,0,0,0,.48-1.942l-4-.989a1,1,0,1,0-.48,1.941l1.24.307V44H30a1,1,0,0,0,0,2h8a1,1,0,0,0,0-2Zm.293-19.707a1,1,0,0,0,0,1.414,3.242,3.242,0,0,1,0,4.586,1,1,0,1,0,1.414,1.414,5.241,5.241,0,0,0,0-7.414A1,1,0,0,0,38.293,24.293Zm5.414-2a1,1,0,0,0-1.414,1.414,6.072,6.072,0,0,1,0,8.586,1,1,0,1,0,1.414,1.414,8.071,8.071,0,0,0,0-11.414ZM29.778,31.707a1,1,0,0,0,0-1.414,3.242,3.242,0,0,1,0-4.586,1,1,0,0,0-1.414-1.414,5.241,5.241,0,0,0,0,7.414,1,1,0,0,0,1.414,0Zm-4-9.414a1,1,0,0,0-1.414,0,8.071,8.071,0,0,0,0,11.414,1,1,0,0,0,1.414-1.414,6.072,6.072,0,0,1,0-8.586A1,1,0,0,0,25.778,22.293Z" transform="translate(-22 -22)"/>
</svg>
