<?xml version="1.0" encoding="utf-8"?>
<!-- Generator: Adobe Illustrator 24.0.2, SVG Export Plug-In . SVG Version: 6.00 Build 0)  -->
<svg version="1.1" id="Layer_1" xmlns="http://www.w3.org/2000/svg" xmlns:xlink="http://www.w3.org/1999/xlink" x="0px" y="0px"
	 viewBox="0 0 24 24" style="enable-background:new 0 0 24 24;" xml:space="preserve">
<title>export-24px</title>
<path d="M24,15v6c0,1.7-1.3,3-3,3H3c-1.7,0-3-1.3-3-3V3c0-1.7,1.3-3,3-3h5c0.6,0,1,0.4,1,1S8.6,2,8,2H3C2.4,2,2,2.4,2,3v18
	c0,0.6,0.4,1,1,1h18c0.6,0,1-0.4,1-1v-6c0-0.6,0.4-1,1-1S24,14.4,24,15z M7,14c0,0.6,0.4,1,1,1s1-0.4,1-1v-2c0-2.8,2.2-5,5-5h6.6
	l-3.3,3.3c-0.4,0.4-0.4,1,0,1.4c0,0,0,0,0,0c0.4,0.4,1,0.4,1.4,0c0,0,0,0,0,0l5-5c0.4-0.4,0.4-1,0-1.4c0,0,0,0,0,0l-5-5
	c-0.4-0.4-1-0.4-1.4,0s-0.4,1,0,1.4L20.6,5H14c-3.9,0-7,3.1-7,7V14z"/>
</svg>
