<svg id="external-link-24px" xmlns="http://www.w3.org/2000/svg" width="24" height="24" viewBox="0 0 24 24">
  <path id="external-link-24px-2" data-name="external-link-24px" d="M24,14v7a2.946,2.946,0,0,1-3,3H3a2.946,2.946,0,0,1-3-3V3A2.946,2.946,0,0,1,3,0h7a.945.945,0,0,1,1,1,.945.945,0,0,1-1,1H3A.945.945,0,0,0,2,3V21a.945.945,0,0,0,1,1H21a.945.945,0,0,0,1-1V14a1,1,0,0,1,2,0ZM23.9.6a1.205,1.205,0,0,0-.5-.5A.6.6,0,0,0,23,0H16a.945.945,0,0,0-1,1,.945.945,0,0,0,1,1h4.6L6.3,16.3a.967.967,0,0,0,0,1.4.967.967,0,0,0,1.4,0L22,3.4V8a1,1,0,0,0,2,0V1A.6.6,0,0,0,23.9.6Z"/>
</svg>
