<svg xmlns="http://www.w3.org/2000/svg" viewBox="0 0 24 24"><g id="Layer_2" data-name="Layer 2"><g id="Layer_1-2" data-name="Layer 1"><path d="M3,11A1,1,0,0,0,3,9,1,1,0,1,1,4,8,1,1,0,0,0,6,8,3,3,0,0,0,4,5.18V4H5.18a3,3,0,0,0,5.64,0h2.36a3,3,0,0,0,5.64,0H20V5.18A3,3,0,0,0,18,8a1,1,0,0,0,2,0,1,1,0,1,1,1,1,1,1,0,0,0,0,2,3,3,0,0,0,1-5.82V3a1,1,0,0,0-1-1H18.82a3,3,0,0,0-5.64,0H10.82A3,3,0,0,0,5.18,2H3A1,1,0,0,0,2,3V5.18A3,3,0,0,0,3,11ZM16,2a1,1,0,1,1-1,1A1,1,0,0,1,16,2ZM8,2A1,1,0,1,1,7,3,1,1,0,0,1,8,2ZM21,17.05V13a1,1,0,0,0-1-1H15a1,1,0,0,0-1,1v4H10V13a1,1,0,0,0-1-1H4a1,1,0,0,0-1,1v4.05a3.49,3.49,0,0,0,.5,7h17a3.49,3.49,0,0,0,.5-6.95ZM8.85,22H6.65a3.39,3.39,0,0,0,0-3h2.2a3.39,3.39,0,0,0,0,3Zm1.65-1.5A1.5,1.5,0,1,1,12,22,1.5,1.5,0,0,1,10.5,20.5ZM15.15,19h2.2a3.39,3.39,0,0,0,0,3h-2.2a3.39,3.39,0,0,0,0-3ZM16,14h3v3H16ZM5,14H8v3H5ZM2,20.5A1.5,1.5,0,1,1,3.5,22,1.5,1.5,0,0,1,2,20.5ZM20.5,22A1.5,1.5,0,1,1,22,20.5,1.5,1.5,0,0,1,20.5,22Z"/></g></g></svg>