<svg id="group-24px" xmlns="http://www.w3.org/2000/svg" width="24" height="24" viewBox="0 0 24 24">
  <path id="group-24px-2" data-name="group-24px" d="M19,7H16a5.068,5.068,0,0,0-4,2h0A4.923,4.923,0,0,0,8,7H5a4.951,4.951,0,0,0-5,5,2.006,2.006,0,0,0,2,2H7.6a4.791,4.791,0,0,0,1.7,3H9a4.951,4.951,0,0,0-5,5,2.006,2.006,0,0,0,2,2H18a2.006,2.006,0,0,0,2-2,4.951,4.951,0,0,0-5-5h-.3a4.381,4.381,0,0,0,1.7-3H22a2.006,2.006,0,0,0,2-2A4.951,4.951,0,0,0,19,7Zm-7,4a2.5,2.5,0,1,1-2.5,2.5A2.54,2.54,0,0,1,12,11ZM7.9,12H2A2.946,2.946,0,0,1,5,9H8a2.792,2.792,0,0,1,1.8.6A4.48,4.48,0,0,0,7.9,12ZM15,19a2.946,2.946,0,0,1,3,3H6a2.946,2.946,0,0,1,3-3Zm1.2-7a4.751,4.751,0,0,0-2-2.4A2.792,2.792,0,0,1,16,9h3a2.946,2.946,0,0,1,3,3ZM10,3.5A3.543,3.543,0,0,0,6.5,0,3.543,3.543,0,0,0,3,3.5,3.543,3.543,0,0,0,6.5,7,3.543,3.543,0,0,0,10,3.5ZM6.5,5A1.538,1.538,0,0,1,5,3.5,1.538,1.538,0,0,1,6.5,2,1.538,1.538,0,0,1,8,3.5,1.538,1.538,0,0,1,6.5,5ZM21,3.5a3.5,3.5,0,0,0-7,0,3.5,3.5,0,0,0,7,0ZM17.5,5A1.538,1.538,0,0,1,16,3.5a1.5,1.5,0,0,1,3,0A1.538,1.538,0,0,1,17.5,5Z"/>
</svg>
