<svg id="handshake-24px" xmlns="http://www.w3.org/2000/svg" width="24" height="18" viewBox="0 0 24 18">
  <path id="handshake-24px-2" data-name="handshake-24px" d="M23,13H21.4l.3-.3c.1-.1.2-.2.2-.3A.6.6,0,0,0,22,12V8.5A6.963,6.963,0,0,0,21.5,6H23a.945.945,0,0,0,1-1,.945.945,0,0,0-1-1H20.4c-.1-.2-.3-.3-.4-.5L18.2,1.7A6.31,6.31,0,0,0,13.9,0H8.2A3.949,3.949,0,0,0,5.4,1.2L2.6,4H1A.945.945,0,0,0,0,5,.945.945,0,0,0,1,6H2v5H1a1,1,0,0,0,0,2H3.6l3.5,3.5A5.093,5.093,0,0,0,10.6,18h3.7a4.691,4.691,0,0,0,3.5-1.5L19.3,15H23a1,1,0,0,0,0-2ZM18.5,4.9h0A4.91,4.91,0,0,1,20,8.5v2.4a5.853,5.853,0,0,1-3.3-1.7l-3-2.9a.967.967,0,0,0-1.4,0l-.2.2a3.085,3.085,0,0,1-4.2,0c-.1-.2-.2-.3-.2-.5s.1-.3.2-.5l2.4-2.4A3.928,3.928,0,0,1,13.1,2H14a3.949,3.949,0,0,1,2.8,1.2Zm-2,10.2a2.878,2.878,0,0,1-2.1.9H10.7a2.723,2.723,0,0,1-2.1-.9L4.8,11.3h0L4,10.6V5.4L6.8,2.6A1.974,1.974,0,0,1,8.2,2h.3l-2,2.1A2.732,2.732,0,0,0,5.7,6a2.732,2.732,0,0,0,.8,1.9A5,5,0,0,0,10,9.3a4.719,4.719,0,0,0,3-1l2.3,2.3a8.774,8.774,0,0,0,3.6,2.1l-.6.6h0Z"/>
</svg>
