<svg id="heart-24px" xmlns="http://www.w3.org/2000/svg" width="24" height="24" viewBox="0 0 24 24">
  <path id="heart-24px-2" data-name="heart-24px" d="M12,24a.908.908,0,0,1-.7-.3L3.2,15.6A10.573,10.573,0,0,1,0,7.9V7A6.957,6.957,0,0,1,7,0a7.119,7.119,0,0,1,5,2.1A7.119,7.119,0,0,1,17,0a6.957,6.957,0,0,1,7,7v.9a10.968,10.968,0,0,1-3.2,7.8l-8.1,8.1A1.445,1.445,0,0,1,12,24ZM7,2A4.951,4.951,0,0,0,2,7v.9a9,9,0,0,0,2.6,6.4L12,21.7l7.4-7.4A9,9,0,0,0,22,7.9V7a4.951,4.951,0,0,0-5-5,5.082,5.082,0,0,0-4.2,2.2,1.028,1.028,0,0,1-1.7,0A4.779,4.779,0,0,0,7,2Z"/>
</svg>
