<svg id="historical-sumary-24px" xmlns="http://www.w3.org/2000/svg" width="21.8" height="24" viewBox="0 0 21.8 24">
  <path id="historical-sumary-24px-2" data-name="historical-sumary-24px" d="M21.8,13.1A10.926,10.926,0,0,1,10.9,24h-.5a1,1,0,0,1-1-1,1.075,1.075,0,0,1,1-1h.5a8.9,8.9,0,0,0,.2-17.8l.5.5a.967.967,0,0,1,0,1.4.967.967,0,0,1-1.4,0L8,3.9c-.1-.1-.2-.2-.2-.3a.6.6,0,0,1-.1-.4.6.6,0,0,1,.1-.4c0-.1.1-.2.2-.3L10.2.3a.967.967,0,0,1,1.4,0,.967.967,0,0,1,0,1.4l-.5.5A10.951,10.951,0,0,1,21.8,13.1ZM9.6,17.6a.967.967,0,0,0,1.4,0l6-6.1a.99.99,0,0,0-1.4-1.4l-5.3,5.3L7.2,12.3a.99.99,0,0,0-1.4,1.4ZM2,13.6v-.5a.945.945,0,0,0-1-1,.945.945,0,0,0-1,1v.5a1.075,1.075,0,0,0,1,1H1A1,1,0,0,0,2,13.6Zm1,3.5a.922.922,0,0,0-1.3-.4c-.6.3-.8.9-.5,1.3.2.3.4.7.6,1a1.02,1.02,0,0,0,.8.5.764.764,0,0,0,.5-.2.984.984,0,0,0,.3-1.4A5.938,5.938,0,0,1,3,17.1ZM6.9,21a3.508,3.508,0,0,1-.8-.5A1.012,1.012,0,1,0,5,22.2a8.794,8.794,0,0,0,1,.6.749.749,0,0,0,.5.1,1.05,1.05,0,0,0,.9-.5A1.15,1.15,0,0,0,6.9,21Z"/>
</svg>
