<svg id="historic-24px" xmlns="http://www.w3.org/2000/svg" width="24" height="22" viewBox="0 0 24 22">
  <path id="historic-24px-2" data-name="historic-24px" d="M24,11A10.968,10.968,0,0,1,13,22a1,1,0,0,1,0-2A9,9,0,0,0,13,2a9.085,9.085,0,0,0-9,8.6l.3-.3a.99.99,0,0,1,1.4,1.4l-2,2A.908.908,0,0,1,3,14a.908.908,0,0,1-.7-.3l-2-2a.967.967,0,0,1,0-1.4.967.967,0,0,1,1.4,0l.3.3A11,11,0,0,1,24,11ZM13,5a.945.945,0,0,0-1,1v5a.945.945,0,0,0,1,1h5a.945.945,0,0,0,1-1,.945.945,0,0,0-1-1H14V6A.945.945,0,0,0,13,5Z"/>
</svg>
