<svg id="invoice-24px" xmlns="http://www.w3.org/2000/svg" width="24" height="24" viewBox="0 0 24 24">
  <path id="invoice-24px-2" data-name="invoice-24px" d="M21,23.934H3a2.942,2.942,0,0,1-3-2.992V1A1.189,1.189,0,0,1,.5.1a.91.91,0,0,1,1,0L5,1.795,7.5.1a1.186,1.186,0,0,1,1-.1L12,1.895,15.6.1a.922.922,0,0,1,1,.1l2.5,1.7L22.6.2a1.17,1.17,0,0,1,1,0A1.035,1.035,0,0,1,24,1V20.943A2.942,2.942,0,0,1,21,23.934ZM2,2.593v18.35a.943.943,0,0,0,1,1H21a.943.943,0,0,0,1-1V2.593l-2.6,1.3a.922.922,0,0,1-1-.1l-2.5-1.7-3.5,1.7a1.391,1.391,0,0,1-.9,0l-3.4-1.6-2.5,1.6a.922.922,0,0,1-1,.1ZM19,12.964a.943.943,0,0,0-1-1H6a1,1,0,1,0,0,1.995H18A.943.943,0,0,0,19,12.964ZM12,7.978a.943.943,0,0,0-1-1H6a.943.943,0,0,0-1,1,.943.943,0,0,0,1,1h5A.943.943,0,0,0,12,7.978Zm7,9.973a.943.943,0,0,0-1-1H6a1,1,0,1,0,0,1.995H18A.943.943,0,0,0,19,17.951Z" transform="translate(0 0.066)"/>
</svg>
