<svg xmlns="http://www.w3.org/2000/svg" viewBox="0 0 24 24"><g id="Layer_2" data-name="Layer 2"><g id="Layer_1-2" data-name="Layer 1"><path d="M22,0H2A2,2,0,0,0,0,2V23a1,1,0,0,0,1,1H23a1,1,0,0,0,1-1V2A2,2,0,0,0,22,0ZM2,2H22V13H2ZM22,22H2V15H22ZM3,20a1,1,0,0,1,1-1H17a1,1,0,0,1,0,2H4A1,1,0,0,1,3,20Zm0-3a1,1,0,0,1,1-1H6a1,1,0,0,1,0,2H4A1,1,0,0,1,3,17Zm5,0a1,1,0,0,1,1-1h2a1,1,0,0,1,0,2H9A1,1,0,0,1,8,17Zm5,0a1,1,0,0,1,1-1h3a1,1,0,0,1,0,2H14A1,1,0,0,1,13,17Zm6,3V17a1,1,0,0,1,2,0v3a1,1,0,0,1-2,0Z"/></g></g></svg>