<svg id="list-24px" xmlns="http://www.w3.org/2000/svg" width="24" height="23" viewBox="0 0 24 23">
  <path id="list-24px-2" data-name="list-24px" d="M23,2H8A.945.945,0,0,1,7,1,.945.945,0,0,1,8,0H23a.945.945,0,0,1,1,1A.945.945,0,0,1,23,2ZM4,1A.945.945,0,0,0,3,0H1A.945.945,0,0,0,0,1,.945.945,0,0,0,1,2H3A.945.945,0,0,0,4,1ZM24,8a.945.945,0,0,0-1-1H8A.945.945,0,0,0,7,8,.945.945,0,0,0,8,9H23A.945.945,0,0,0,24,8ZM4,8A.945.945,0,0,0,3,7H1A.945.945,0,0,0,0,8,.945.945,0,0,0,1,9H3A.945.945,0,0,0,4,8Zm20,7a.945.945,0,0,0-1-1H8a1,1,0,0,0,0,2H23A.945.945,0,0,0,24,15ZM4,15a.945.945,0,0,0-1-1H1a1,1,0,0,0,0,2H3A.945.945,0,0,0,4,15Zm20,7a.945.945,0,0,0-1-1H8a1,1,0,0,0,0,2H23A.945.945,0,0,0,24,22ZM4,22a.945.945,0,0,0-1-1H1a1,1,0,0,0,0,2H3A.945.945,0,0,0,4,22Z"/>
</svg>
