<svg id="mail-24px" xmlns="http://www.w3.org/2000/svg" width="24" height="18" viewBox="0 0 24 18">
  <path id="mail-24px-2" data-name="mail-24px" d="M23.7,1.7h0A3.159,3.159,0,0,0,22.3.3h0A2.768,2.768,0,0,0,21,0H3A2.768,2.768,0,0,0,1.7.3h0A3.159,3.159,0,0,0,.3,1.7h0A2.768,2.768,0,0,0,0,3V15a2.946,2.946,0,0,0,3,3H21a2.946,2.946,0,0,0,3-3V3A2.768,2.768,0,0,0,23.7,1.7ZM20.6,2,12,10.6,3.4,2ZM11.3,12.7a.967.967,0,0,0,1.4,0L22,3.4V14.6l-4.3-4.3a.99.99,0,0,0-1.4,1.4L20.6,16H3.4l4.3-4.3a.99.99,0,0,0-1.4-1.4L2,14.6V3.4Z"/>
</svg>
