<svg xmlns="http://www.w3.org/2000/svg" viewBox="0 0 24 24"><g id="Layer_2" data-name="Layer 2"><g id="Layer_1-2" data-name="Layer 1"><path d="M23.5,4.13l-7-4-.08,0-.07,0A1,1,0,0,0,16,0h0a.91.91,0,0,0-.32.06l-.06,0,0,0L8,3.87,1.5.13a1,1,0,0,0-1,0A1,1,0,0,0,0,1V19a1,1,0,0,0,.5.87l7,4,.07,0,.09,0A1,1,0,0,0,8,24a1,1,0,0,0,.42-.1h0L16,20.13l6.53,3.74a1,1,0,0,0,1,0A1,1,0,0,0,24,23V5A1,1,0,0,0,23.5,4.13ZM2,2.72,7,5.58v15.7L2,18.42ZM16,14.59l-1.79-1.8a2.53,2.53,0,0,1,0-3.58,2.53,2.53,0,0,1,3.58,0,2.53,2.53,0,0,1,0,3.58Zm6,6.69-5-2.86v-2l2.21-2.2a4.54,4.54,0,1,0-6.42,0L15,16.41v2l-6,3V5.62l6-3V5a1,1,0,0,0,2,0V2.72l5,2.86Zm-5.29-11A1.05,1.05,0,0,1,17,11a1.5,1.5,0,0,1,0,.2.64.64,0,0,1-.06.18.76.76,0,0,1-.09.18l-.12.15-.16.12a.56.56,0,0,1-.17.09.6.6,0,0,1-.19.06L16,12a1,1,0,0,1-.38-.08,1,1,0,0,1-.33-.21,1.58,1.58,0,0,1-.12-.15.76.76,0,0,1-.09-.18A.64.64,0,0,1,15,11.2a1.5,1.5,0,0,1,0-.2,1.05,1.05,0,0,1,.29-.71,1,1,0,0,1,.33-.21.93.93,0,0,1,.57-.06.6.6,0,0,1,.19.06.56.56,0,0,1,.17.09A1,1,0,0,1,16.71,10.29Z"/></g></g></svg>