<svg id="map-pin-add-24px" xmlns="http://www.w3.org/2000/svg" width="21.4" height="24" viewBox="0 0 21.4 24">
  <path id="map-pin-add-24px-2" data-name="map-pin-add-24px" d="M12.1,21.9a.967.967,0,0,1,0,1.4,2.342,2.342,0,0,1-1.7.7,2.193,2.193,0,0,1-1.7-.7L3,17.7A10.5,10.5,0,0,1,3,3,10.5,10.5,0,0,1,17.7,3a10.191,10.191,0,0,1,2.6,10.2.982.982,0,0,1-1.9-.5,8.286,8.286,0,0,0-2.1-8.3,8.576,8.576,0,0,0-11.9,0,8.27,8.27,0,0,0,0,11.8L10,21.8c.2.2.5.2.6,0A1.2,1.2,0,0,1,12.1,21.9ZM10.4,5.3a5.1,5.1,0,1,1-5.1,5.1A5.121,5.121,0,0,1,10.4,5.3Zm0,2a3.1,3.1,0,1,0,3.1,3.1A3.183,3.183,0,0,0,10.4,7.3ZM20.4,19h-2V17a1,1,0,0,0-2,0v2h-2a1,1,0,0,0,0,2h2v2a1,1,0,0,0,2,0V21h2a.945.945,0,0,0,1-1A1,1,0,0,0,20.4,19Z"/>
</svg>
