<svg xmlns="http://www.w3.org/2000/svg" viewBox="0 0 24 24"><g id="Layer_2" data-name="Layer 2"><g id="Layer_1-2" data-name="Layer 1"><path d="M4,12.5A3.5,3.5,0,1,0,7.5,9,3.5,3.5,0,0,0,4,12.5Zm5,0A1.5,1.5,0,1,1,7.5,11,1.5,1.5,0,0,1,9,12.5ZM10,17H5a5,5,0,0,0-5,5,2,2,0,0,0,2,2H13a2,2,0,0,0,2-2A5,5,0,0,0,10,17ZM2,22a3,3,0,0,1,3-3h5a3,3,0,0,1,3,3ZM24,1V13a1,1,0,0,1-1,1H15v1h3a1,1,0,0,1,0,2H13a1,1,0,0,1,0-2V13a1,1,0,0,1,1-1h8V2H6V7A1,1,0,0,1,4,7V1A1,1,0,0,1,5,0H23A1,1,0,0,1,24,1ZM10,9a1,1,0,0,1-.71-.29,1,1,0,0,1,0-1.42l2-2a1,1,0,0,1,1.42,0L15,7.59l4.29-4.3a1,1,0,1,1,1.42,1.42l-5,5a1,1,0,0,1-1.42,0L12,7.41l-1.29,1.3A1,1,0,0,1,10,9Z"/></g></g></svg>