<svg xmlns="http://www.w3.org/2000/svg" viewBox="0 0 24 24"><g id="Layer_2" data-name="Layer 2"><g id="Layer_1-2" data-name="Layer 1"><path d="M16,16H1a1,1,0,0,0-1,1v6a1,1,0,0,0,1,1H16a1,1,0,0,0,1-1V17A1,1,0,0,0,16,16ZM2,18h8v4H2Zm13,4H12V18h3Zm6.5-6A2.5,2.5,0,0,0,19,18.5v3a2.5,2.5,0,0,0,5,0v-3A2.5,2.5,0,0,0,21.5,16Zm.5,5.5a.5.5,0,0,1-1,0v-3a.5.5,0,0,1,1,0ZM16,12H13V11h7a1,1,0,0,0,1-1V1a1,1,0,0,0-1-1H4A1,1,0,0,0,3,1v9a1,1,0,0,0,1,1h7v1H8a1,1,0,0,0,0,2h8a1,1,0,0,0,0-2ZM5,2H19V9H5Z"/></g></g></svg>