<svg id="pin-24px" xmlns="http://www.w3.org/2000/svg" width="24.008" height="24.004" viewBox="0 0 24.008 24.004">
  <path id="pin-24px-2" data-name="pin-24px" d="M23.7,10.3,13.7.3A.913.913,0,0,0,12.6.1.875.875,0,0,0,12,1V4.6L7.6,9H1a.875.875,0,0,0-.9.6.913.913,0,0,0,.2,1.1l5.8,5.8L.3,22.3a.967.967,0,0,0,0,1.4A.908.908,0,0,0,1,24a.908.908,0,0,0,.7-.3l5.8-5.8,5.8,5.8a.908.908,0,0,0,.7.3.6.6,0,0,0,.4-.1A.961.961,0,0,0,15,23V16.4L19.4,12H23a.875.875,0,0,0,.9-.6A.913.913,0,0,0,23.7,10.3ZM19,10a.908.908,0,0,0-.7.3l-5,5a.908.908,0,0,0-.3.7v4.6L3.4,11H8a.908.908,0,0,0,.7-.3l5-5A.908.908,0,0,0,14,5V3.4L20.6,10Z" transform="translate(0.004 0.004)"/>
</svg>
