<svg xmlns="http://www.w3.org/2000/svg" viewBox="0 0 24 24"><g id="Layer_2" data-name="Layer 2"><g id="Layer_1-2" data-name="Layer 1"><path d="M23.71,9.71l-2,2a1,1,0,0,1-.33.21.94.94,0,0,1-.76,0,1,1,0,0,1-.33-.21l-2-2a1,1,0,0,1,1.42-1.42l.13.14A8,8,0,0,0,4,10a1,1,0,0,1-2,0A10,10,0,0,1,21.9,8.68l.39-.39a1,1,0,0,1,1.42,1.42ZM21,13a1,1,0,0,0-1,1A8,8,0,0,1,4.16,15.57l.13.14a1,1,0,0,0,1.42,0,1,1,0,0,0,0-1.42l-2-2a1,1,0,0,0-.33-.21,1,1,0,0,0-.76,0,1,1,0,0,0-.33.21l-2,2a1,1,0,0,0,1.42,1.42l.39-.39A10,10,0,0,0,22,14,1,1,0,0,0,21,13Z"/></g></g></svg>