<svg id="reply-all-24px" xmlns="http://www.w3.org/2000/svg" width="24" height="19" viewBox="0 0 24 19">
  <path id="reply-all-24px-2" data-name="reply-all-24px" d="M24,14v4a1,1,0,0,1-2,0V14a6.957,6.957,0,0,0-7-7H8.4l3.3,3.3a.967.967,0,0,1,0,1.4.967.967,0,0,1-1.4,0l-5-5a.967.967,0,0,1,0-1.4l5-5a.967.967,0,0,1,1.4,0,.967.967,0,0,1,0,1.4L8.4,5H15A8.963,8.963,0,0,1,24,14ZM2.4,6,6.7,1.7A.967.967,0,0,0,6.7.3.967.967,0,0,0,5.3.3l-5,5a.967.967,0,0,0,0,1.4l5,5a.967.967,0,0,0,1.4,0,.967.967,0,0,0,0-1.4Z"/>
</svg>
