<svg id="request-send-24px" xmlns="http://www.w3.org/2000/svg" width="24" height="24" viewBox="0 0 24 24">
  <path id="request-send-24-x" d="M7.5,16a3.5,3.5,0,0,0,0-7,3.5,3.5,0,0,0,0,7Zm0-5A1.5,1.5,0,1,1,6,12.5,1.538,1.538,0,0,1,7.5,11ZM10,17H5a4.951,4.951,0,0,0-5,5,2.006,2.006,0,0,0,2,2H13a2.006,2.006,0,0,0,2-2A4.951,4.951,0,0,0,10,17ZM2,22a2.946,2.946,0,0,1,3-3h5a2.946,2.946,0,0,1,3,3ZM24,3v8a2.946,2.946,0,0,1-3,3H17.3l-3.7,2.8a1.421,1.421,0,0,1-.6.2c-.2,0-.3,0-.4-.1A.961.961,0,0,1,12,16V13a1,1,0,0,1,2,0v1l2.4-1.8A1.421,1.421,0,0,1,17,12h4a.945.945,0,0,0,1-1V3a.945.945,0,0,0-1-1H9A.945.945,0,0,0,8,3V6A.945.945,0,0,1,7,7,.945.945,0,0,1,6,6V3A2.946,2.946,0,0,1,9,0H21A2.946,2.946,0,0,1,24,3ZM12.2,8.4,14.6,6H13a.945.945,0,0,1-1-1,.945.945,0,0,1,1-1h4a.6.6,0,0,1,.4.1,1.205,1.205,0,0,1,.5.5A.6.6,0,0,1,18,5h0V9a1,1,0,0,1-2,0V7.4L13.6,9.8a.967.967,0,0,1-1.4,0A.967.967,0,0,1,12.2,8.4Z"/>
</svg>
