<svg id="request-24px" xmlns="http://www.w3.org/2000/svg" width="24" height="24" viewBox="0 0 24 24">
  <path id="request-24px-2" data-name="request-24px" d="M7,24a.6.6,0,0,1-.4-.1A.875.875,0,0,1,6,23V19H3a2.946,2.946,0,0,1-3-3V3A2.946,2.946,0,0,1,3,0H21a2.946,2.946,0,0,1,3,3V16a2.946,2.946,0,0,1-3,3H12.4L7.7,23.7A.908.908,0,0,1,7,24ZM3,2A.945.945,0,0,0,2,3V16a.945.945,0,0,0,1,1H7a.945.945,0,0,1,1,1v2.6l3.3-3.3A.908.908,0,0,1,12,17h9a.945.945,0,0,0,1-1V3a.945.945,0,0,0-1-1ZM13,12v-.1a4.594,4.594,0,0,0,3.5-4.4,4.5,4.5,0,0,0-9,0,.945.945,0,0,0,1,1,.945.945,0,0,0,1-1A2.5,2.5,0,1,1,12,10a.945.945,0,0,0-1,1v1a1,1,0,0,0,2,0Zm-.3,3.7a.1.1,0,0,1,.1-.1c0-.1.1-.1.1-.2s0-.1.1-.2V15a.908.908,0,0,0-.3-.7.967.967,0,0,0-1.4,0c-.1.1-.2.2-.2.3s-.1.3-.1.4a.99.99,0,0,0,1.7.7Z"/>
</svg>
