<svg id="request-approval-24px" xmlns="http://www.w3.org/2000/svg" width="24" height="24" viewBox="0 0 24 24">
  <path id="request-approval-24px-2" data-name="request-approval-24px" d="M7.5,16a3.5,3.5,0,0,1,0-7,3.5,3.5,0,0,1,0,7Zm0-5A1.5,1.5,0,1,0,9,12.5,1.538,1.538,0,0,0,7.5,11ZM13,24H2a2.006,2.006,0,0,1-2-2,4.951,4.951,0,0,1,5-5h5a4.951,4.951,0,0,1,5,5A2.006,2.006,0,0,1,13,24ZM5,19a2.946,2.946,0,0,0-3,3H13a2.946,2.946,0,0,0-3-3Zm8.6-2.2L17.3,14H21a2.946,2.946,0,0,0,3-3V3a2.946,2.946,0,0,0-3-3H9A2.946,2.946,0,0,0,6,3V6A.945.945,0,0,0,7,7,.945.945,0,0,0,8,6V3A.945.945,0,0,1,9,2H21a.945.945,0,0,1,1,1v8a.945.945,0,0,1-1,1H17a1.421,1.421,0,0,0-.6.2L14,14V13a1,1,0,0,0-2,0v3a.961.961,0,0,0,.6.9c.1.1.2.1.4.1A1.421,1.421,0,0,0,13.6,16.8Zm1.1-6.1,5-5a.99.99,0,1,0-1.4-1.4L14,8.6,11.7,6.3a.99.99,0,0,0-1.4,1.4l3,3a.967.967,0,0,0,1.4,0Z"/>
</svg>
