<svg xmlns="http://www.w3.org/2000/svg" viewBox="0 0 24 8"><g id="Layer_2" data-name="Layer 2"><g id="Layer_1-2" data-name="Layer 1"><path d="M9,4A1,1,0,0,1,8,5H3.41l1.3,1.29a1,1,0,0,1,0,1.42A1,1,0,0,1,4,8a1,1,0,0,1-.71-.29l-3-3a1,1,0,0,1-.21-.33.92.92,0,0,1,0-.76,1,1,0,0,1,.21-.33l3-3A1,1,0,0,1,4.71,1.71L3.41,3H8A1,1,0,0,1,9,4Zm14.92.38a1,1,0,0,0,0-.76,1,1,0,0,0-.21-.33l-3-3a1,1,0,0,0-1.42,1.42L20.58,3H16a1,1,0,0,0,0,2h4.58L19.29,6.29a1,1,0,0,0,0,1.42A1,1,0,0,0,20,8a1,1,0,0,0,.71-.29l3-3A1,1,0,0,0,23.92,4.38Z"/></g></g></svg>