<svg id="rocket-24px" xmlns="http://www.w3.org/2000/svg" width="24" height="24" viewBox="0 0 24 24">
  <path id="rocket-24px-2" data-name="rocket-24px" d="M23,0H17.7A9.01,9.01,0,0,0,9.8,4.7L7,10a7.086,7.086,0,0,0-7,7,.945.945,0,0,0,1,1H3.6L6,20.4V23a.945.945,0,0,0,1,1,7.02,7.02,0,0,0,7-7l5.3-2.9A9.01,9.01,0,0,0,24,6.2V1A.945.945,0,0,0,23,0ZM22,6.3a6.9,6.9,0,0,1-3.6,6.1L7,18.6,5.4,17,11.6,5.6A7.023,7.023,0,0,1,17.7,2H22ZM8,21.9V20.3l3.8-2.1A4.818,4.818,0,0,1,8,21.9ZM3.7,16H2.1a4.818,4.818,0,0,1,3.7-3.8ZM13,7.5a3.5,3.5,0,0,0,7,0,3.5,3.5,0,0,0-7,0ZM16.5,9a1.5,1.5,0,0,1,0-3A1.538,1.538,0,0,1,18,7.5,1.538,1.538,0,0,1,16.5,9Z"/>
</svg>
