<svg id="save-24px" xmlns="http://www.w3.org/2000/svg" width="24" height="24" viewBox="0 0 24 24">
  <path id="save-24px-2" data-name="save-24px" d="M23.1,4.7,19.3.9A2.878,2.878,0,0,0,17.2,0H3A2.946,2.946,0,0,0,0,3V21a2.946,2.946,0,0,0,3,3H21a2.946,2.946,0,0,0,3-3V6.8A2.878,2.878,0,0,0,23.1,4.7ZM12,2V8H7V2ZM6,22V16H18v6Zm16-1a.945.945,0,0,1-1,1H20V15a.945.945,0,0,0-1-1H5a.945.945,0,0,0-1,1v7H3a.945.945,0,0,1-1-1V3A.945.945,0,0,1,3,2H5V9a.945.945,0,0,0,1,1H17a.945.945,0,0,0,1-1V2.4l3.7,3.7a1.08,1.08,0,0,1,.3.7Z"/>
</svg>
