<svg id="send-24px" xmlns="http://www.w3.org/2000/svg" width="24" height="23.966" viewBox="0 0 24 23.966">
  <path id="send-24px-2" data-name="send-24px" d="M23.9,11.7h0a.367.367,0,0,1-.1-.3h0l-.1-.1c-.1-.1-.1-.1-.2-.1L5.5.2a1.183,1.183,0,0,0-1-.1A1.05,1.05,0,0,0,4,1V8.4L.4,11.2a1,1,0,0,0,0,1.6L4,15.6V23a1.05,1.05,0,0,0,.5.9A.9.9,0,0,0,5,24a.749.749,0,0,0,.5-.1l18-11c.1,0,.1-.1.2-.1l.1-.1h0c0-.1.1-.1.1-.2v-.1c0-.1.1-.2.1-.3h0C24,11.9,24,11.8,23.9,11.7ZM6,2.8l12,7.4-1.6-.3L6,8.1ZM5.3,10,17,12,5.3,14,2.7,12ZM6,15.9l10.4-1.8,1.6-.3L6,21.2Z" transform="translate(0 -0.034)"/>
</svg>
