<svg xmlns="http://www.w3.org/2000/svg" viewBox="0 0 24 24"><g id="Layer_2" data-name="Layer 2"><g id="Layer_1-2" data-name="Layer 1"><path d="M23,7a1,1,0,0,0,1-1V1a1,1,0,0,0-1-1H1A1,1,0,0,0,0,1V6A1,1,0,0,0,1,7H2V9H1a1,1,0,0,0-1,1v4a1,1,0,0,0,1,1H2v2H1a1,1,0,0,0-1,1v5a1,1,0,0,0,1,1H6a1,1,0,0,0,0-2H2V19H7a1,1,0,0,0,0-2H4V15H9a1,1,0,0,0,0-2H2V11H22v2a1,1,0,0,0,0,2h1a1,1,0,0,0,1-1V10a1,1,0,0,0-1-1H22V7ZM2,2H22V5H2ZM20,9H4V7H20Zm1.2,7.94a5.5,5.5,0,0,0-10.76,1.22A2.93,2.93,0,0,0,10.79,24h9.64a3.57,3.57,0,0,0,.77-7.06ZM20.43,22H10.79a.93.93,0,0,1,0-1.86,1,1,0,0,1,.34.07,1,1,0,0,0,1-.15,1,1,0,0,0,.36-.95,3.4,3.4,0,0,1-.06-.61,3.49,3.49,0,0,1,6.75-1.24,3.62,3.62,0,0,0-1.13.74,1,1,0,0,0,0,1.41,1,1,0,0,0,.71.3,1,1,0,0,0,.7-.28A1.47,1.47,0,0,1,20.5,19a1.16,1.16,0,0,0,.37-.07A1.57,1.57,0,0,1,20.43,22Z"/></g></g></svg>