<svg id="sort-24px" xmlns="http://www.w3.org/2000/svg" width="24" height="24" viewBox="0 0 24 24">
  <path id="sort-24px-2" data-name="sort-24px" d="M11.7,17.3a.967.967,0,0,1,0,1.4l-5,5a.967.967,0,0,1-1.4,0l-5-5a.967.967,0,0,1,0-1.4.967.967,0,0,1,1.4,0L5,20.6V1A.945.945,0,0,1,6,0,.945.945,0,0,1,7,1V20.6l3.3-3.3A.967.967,0,0,1,11.7,17.3Zm12-12-5-5a.967.967,0,0,0-1.4,0l-5,5a.967.967,0,0,0,0,1.4.967.967,0,0,0,1.4,0L17,3.4V23a1,1,0,0,0,2,0V3.4l3.3,3.3a.967.967,0,0,0,1.4,0A.967.967,0,0,0,23.7,5.3Z"/>
</svg>
