<svg id="table-3-24px" xmlns="http://www.w3.org/2000/svg" width="24" height="24" viewBox="0 0 24 24">
  <path id="table-3-24px-2" data-name="table-3-24px" d="M21,0H3A2.946,2.946,0,0,0,0,3V21a2.946,2.946,0,0,0,3,3H21a2.946,2.946,0,0,0,3-3V3A2.946,2.946,0,0,0,21,0ZM3,2H21a.945.945,0,0,1,1,1V6H2V3A.945.945,0,0,1,3,2ZM2,21V8H9V22H3A.945.945,0,0,1,2,21Zm19,1H11V8H22V21A.945.945,0,0,1,21,22ZM4,11a.945.945,0,0,1,1-1H6a.945.945,0,0,1,1,1,.945.945,0,0,1-1,1H5A.945.945,0,0,1,4,11Zm3,4a.945.945,0,0,1-1,1H5a1,1,0,0,1,0-2H6A.945.945,0,0,1,7,15Zm0,4a.945.945,0,0,1-1,1H5a1,1,0,0,1,0-2H6A.945.945,0,0,1,7,19Zm13-8a.945.945,0,0,1-1,1H14a.945.945,0,0,1-1-1,.945.945,0,0,1,1-1h5A1,1,0,0,1,20,11Zm0,4a.945.945,0,0,1-1,1H14a1,1,0,0,1,0-2h5A1,1,0,0,1,20,15Zm0,4a.945.945,0,0,1-1,1H14a1,1,0,0,1,0-2h5A1,1,0,0,1,20,19Z"/>
</svg>
