<svg id="upload-24px" xmlns="http://www.w3.org/2000/svg" width="24" height="24" viewBox="0 0 24 24">
  <path id="upload-24px-2" data-name="upload-24px" d="M24,14v7a2.946,2.946,0,0,1-3,3H3a2.946,2.946,0,0,1-3-3V14a2.946,2.946,0,0,1,3-3H6a1,1,0,0,1,0,2H3a.945.945,0,0,0-1,1v7a.945.945,0,0,0,1,1H21a.945.945,0,0,0,1-1V14a.945.945,0,0,0-1-1H18a1,1,0,0,1,0-2h3A2.946,2.946,0,0,1,24,14ZM7.7,6.7,11,3.4V18a1,1,0,0,0,2,0V3.4l3.3,3.3a.967.967,0,0,0,1.4,0,.967.967,0,0,0,0-1.4l-5-5a.967.967,0,0,0-1.4,0l-5,5A.99.99,0,0,0,7.7,6.7ZM19,18a1,1,0,1,0-1,1A.945.945,0,0,0,19,18Z"/>
</svg>
