<svg id="video-24px" xmlns="http://www.w3.org/2000/svg" width="22" height="18" viewBox="0 0 22 18">
  <path id="video-24px-2" data-name="video-24px" d="M21.4,2.1a.913.913,0,0,0-1.1.2L18,4.6V3.3A3.329,3.329,0,0,0,14.7,0H3.3A3.329,3.329,0,0,0,0,3.3V14.7A3.329,3.329,0,0,0,3.3,18H14.7A3.329,3.329,0,0,0,18,14.7V13.4l2.3,2.3a.908.908,0,0,0,.7.3.6.6,0,0,0,.4-.1A.961.961,0,0,0,22,15V3A.875.875,0,0,0,21.4,2.1ZM16,14.7A1.324,1.324,0,0,1,14.7,16H3.3A1.324,1.324,0,0,1,2,14.7V3.3A1.324,1.324,0,0,1,3.3,2H14.7A1.324,1.324,0,0,1,16,3.3V14.7Zm4-2.1-2-2V7.4l2-2Z"/>
</svg>
