<svg id="wait-24px" xmlns="http://www.w3.org/2000/svg" width="23.815" height="23.901" viewBox="0 0 23.815 23.901">
  <path id="wait-24px-2" data-name="wait-24px" d="M12,4a.945.945,0,0,1,1,1v7a1,1,0,0,1-2,0V5A.945.945,0,0,1,12,4Zm1.5-2.9a.945.945,0,0,0-1-1H12A11.886,11.886,0,0,0,0,12,12.035,12.035,0,0,0,12,24h.5a1,1,0,0,0,1-1,1.075,1.075,0,0,0-1-1H12A10,10,0,0,1,12,2h.5A.987.987,0,0,0,13.5,1.1Zm6.6,5a.909.909,0,0,0,.8.4,1.421,1.421,0,0,0,.6-.2,1.075,1.075,0,0,0,.2-1.4,2.7,2.7,0,0,0-.7-.8.992.992,0,0,0-1.5,1.3C19.7,5.6,19.9,5.9,20.1,6.1Zm1.5,3.2c.1.3.1.6.2.9a.974.974,0,0,0,1,.8H23a1.037,1.037,0,0,0,.8-1.2c-.1-.4-.1-.7-.2-1.1A1.028,1.028,0,0,0,22.4,8,1.231,1.231,0,0,0,21.6,9.3ZM23,13a1.1,1.1,0,0,0-1.2.8c-.1.3-.1.6-.2.9a1.028,1.028,0,0,0,.7,1.2h.3a1.2,1.2,0,0,0,1-.7,3.553,3.553,0,0,0,.2-1A1.037,1.037,0,0,0,23,13Zm-2.9,4.9c-.2.2-.4.5-.6.7a.972.972,0,0,0,.1,1.4.844.844,0,0,0,.7.2,1.136,1.136,0,0,0,.8-.3,5.716,5.716,0,0,1,.7-.8,1.075,1.075,0,0,0-.2-1.4A.99.99,0,0,0,20.1,17.9Zm-3.3,2.9c-.3.1-.5.3-.8.4a.992.992,0,0,0-.5,1.3.961.961,0,0,0,.9.6.6.6,0,0,0,.4-.1,4.671,4.671,0,0,0,1-.5,1.012,1.012,0,0,0,.4-1.4A1.122,1.122,0,0,0,16.8,20.8Zm-.9-18a2.994,2.994,0,0,1,.8.4.9.9,0,0,0,.5.1,1.05,1.05,0,0,0,.9-.5,1.012,1.012,0,0,0-.4-1.4,9.292,9.292,0,0,0-1-.5.992.992,0,0,0-1.3.5A1.074,1.074,0,0,0,15.9,2.8Z" transform="translate(0 -0.099)"/>
</svg>
