<svg id="wind-energy-24px" xmlns="http://www.w3.org/2000/svg" width="21.861" height="23.8" viewBox="0 0 21.861 23.8">
  <path id="wind-energy-24px-2" data-name="wind-energy-24px" d="M21.9,16.5a7.4,7.4,0,0,0-8-5.4,2.689,2.689,0,0,0-1.3-1.8,7.761,7.761,0,0,0,1.2-3.9A7.543,7.543,0,0,0,11.7.3a.967.967,0,0,0-1.4,0A7.209,7.209,0,0,0,8.1,5.4,6.667,6.667,0,0,0,9.3,9.3,3.158,3.158,0,0,0,8,11.5a6.912,6.912,0,0,0-7.9,5,1.128,1.128,0,0,0,.1.8c.1.3.4.4.6.5a8.807,8.807,0,0,0,1.7.2,6.9,6.9,0,0,0,6.3-4.1c.2.2.4.3.6.5L8.1,21.8H8a1,1,0,0,0,0,2h6a1,1,0,0,0,0-2h-.2l-1.3-7.4c.1-.1.2-.1.3-.2a7.415,7.415,0,0,0,6.5,3.9,6.279,6.279,0,0,0,1.9-.3A1.146,1.146,0,0,0,21.9,16.5Zm-7.4-3.4a5.325,5.325,0,0,1,3,.7A5.558,5.558,0,0,1,19.6,16a5.325,5.325,0,0,1-3-.7A4.471,4.471,0,0,1,14.5,13.1ZM11,12.8a1,1,0,0,1,0-2,.945.945,0,0,1,1,1A1,1,0,0,1,11,12.8ZM11,2.6a5.3,5.3,0,0,1,0,5.6,5.376,5.376,0,0,1-.8-2.8A4.019,4.019,0,0,1,11,2.6ZM6.9,13.4A4.857,4.857,0,0,1,2.4,16,4.935,4.935,0,0,1,6.9,13.4Zm3.2,8.4.8-4.4.8,4.4Z" transform="translate(-0.059)"/>
</svg>
