<svg id="wolrd-24px" xmlns="http://www.w3.org/2000/svg" width="24" height="24" viewBox="0 0 24 24">
  <path id="window-24px" d="M36-19a11.9,11.9,0,0,0-3.947.681.818.818,0,0,0-.108.039A12.01,12.01,0,0,0,24-7,12.013,12.013,0,0,0,36,5,12.013,12.013,0,0,0,48-7,12.013,12.013,0,0,0,36-19ZM26-7a10.013,10.013,0,0,1,6.241-9.261l2.026,1.667v2.178l-.351-.2a1.991,1.991,0,0,0-1.709-.151l-2.5.926A2.006,2.006,0,0,0,28.4-9.971v1.457a2,2,0,0,0,1.515,1.94l3.732.933L31.668-2.672a2,2,0,0,0-.335,1.108v3.4A10,10,0,0,1,26-7Zm7.315,9.623a.9.9,0,0,0,.018-.09v-4.1l1.979-2.967a2,2,0,0,0,.2-1.83,2,2,0,0,0-1.381-1.22L30.4-8.514V-9.971l2.5-.926.351.206a1.981,1.981,0,0,0,2.007.012,1.977,1.977,0,0,0,1.007-1.736v-2.179a2,2,0,0,0-.729-1.545l-.917-.754A9.956,9.956,0,0,1,36-17a9.985,9.985,0,0,1,8.122,4.189l-3.94.985a2,2,0,0,0-1.515,1.94v1.534a1.989,1.989,0,0,0,1.1,1.789l1.664.832L40.3-1.191a2.016,2.016,0,0,0,.526,1.9l.65.649A9.931,9.931,0,0,1,36,3,9.962,9.962,0,0,1,33.315,2.623ZM43.04.093l-.8-.8,1.135-4.538A1.987,1.987,0,0,0,42.33-7.52l-1.663-.832V-9.886l4.489-1.122A9.93,9.93,0,0,1,46-7,9.968,9.968,0,0,1,43.04.093Z" transform="translate(-24 19)"/>
</svg>
