<svg xmlns="http://www.w3.org/2000/svg" width="17" height="13" viewBox="0 0 17 13">
  <g id="add-card-16px" transform="translate(0.5 0.5)">
    <path id="Subtração_7" data-name="Subtração 7" d="M8,12H.5a.5.5,0,0,1-.5-.5V.5A.5.5,0,0,1,.5,0h15a.5.5,0,0,1,.5.5V4H15V1H1V11H8v1Z" transform="translate(0 0)" stroke="rgba(0,0,0,0)" stroke-miterlimit="10" stroke-width="1"/>
    <path id="Caminho_179" data-name="Caminho 179" d="M38,12.5a.5.5,0,0,1-.5.5H35v2.5a.5.5,0,0,1-1,0V13H31.5a.5.5,0,0,1,0-1H34V9.5a.5.5,0,0,1,1,0V12h2.5A.5.5,0,0,1,38,12.5Z" transform="translate(-22 -4)"/>
    <path id="Caminho_272" data-name="Caminho 272" d="M976.148,357.487h2.005" transform="translate(-970.156 -345.987)" fill="none" stroke="#000" stroke-linecap="round" stroke-width="1"/>
    <path id="Caminho_273" data-name="Caminho 273" d="M976.148,357.487h2.005" transform="translate(372.987 -974.148) rotate(90)" fill="none" stroke="#000" stroke-linecap="round" stroke-width="1"/>
    <path id="Caminho_269" data-name="Caminho 269" d="M43.606,3.483h-5.07" transform="translate(-36 -0.483)" fill="none" stroke="#000" stroke-linecap="round" stroke-width="1"/>
    <path id="Caminho_270" data-name="Caminho 270" d="M42.673,3.483H38.536" transform="translate(-36 2.517)" fill="none" stroke="#000" stroke-linecap="round" stroke-width="1"/>
    <path id="Caminho_271" data-name="Caminho 271" d="M41.673,3.483H38.536" transform="translate(-36 5.517)" fill="none" stroke="#000" stroke-linecap="round" stroke-width="1"/>
  </g>
</svg>
