<svg xmlns="http://www.w3.org/2000/svg" viewBox="0 0 16 16"><g id="Layer_2" data-name="Layer 2"><g id="Layer_1-2" data-name="Layer 1"><path d="M14.5,0H1.5A1.5,1.5,0,0,0,0,1.5v4A1.5,1.5,0,0,0,1.5,7h13A1.5,1.5,0,0,0,16,5.5v-4A1.5,1.5,0,0,0,14.5,0ZM15,5.5a.5.5,0,0,1-.5.5H1.5A.5.5,0,0,1,1,5.5v-4A.5.5,0,0,1,1.5,1h13a.5.5,0,0,1,.5.5Zm-4-1a.5.5,0,0,1-.5.5h-7a.5.5,0,0,1,0-1h7A.5.5,0,0,1,11,4.5Zm2,0a.5.5,0,1,1-.5-.5A.5.5,0,0,1,13,4.5ZM9,8a2,2,0,1,0,2,2A2,2,0,0,0,9,8Zm0,3a1,1,0,1,1,1-1A1,1,0,0,1,9,11ZM5.72,12l-1.1.55,1.1.55A.5.5,0,0,1,5.5,14,.54.54,0,0,1,5.28,14L4,13.31V14.5a.5.5,0,0,1-1,0V13.31L1.72,14A.54.54,0,0,1,1.5,14a.5.5,0,0,1-.22-.95l1.1-.55L1.28,12a.5.5,0,1,1,.44-.9L3,11.69V10.5a.5.5,0,0,1,1,0v1.19l1.28-.64a.5.5,0,1,1,.44.9Zm10.08,0L14.33,13l1.47,1.1a.5.5,0,0,1,.1.7.51.51,0,0,1-.4.2.49.49,0,0,1-.3-.1L14,14v1.5a.5.5,0,0,1-1,0V14l-1.2.9a.49.49,0,0,1-.3.1.51.51,0,0,1-.4-.2.5.5,0,0,1,.1-.7L12.67,13,11.2,11.9a.5.5,0,1,1,.6-.8L13,12V10.5a.5.5,0,0,1,1,0V12l1.2-.9a.5.5,0,1,1,.6.8Z"/></g></g></svg>