<svg xmlns="http://www.w3.org/2000/svg" viewBox="0 0 16 16"><g id="Layer_2" data-name="Layer 2"><g id="Layer_1-2" data-name="Layer 1"><path d="M14.5,7A1.5,1.5,0,0,0,16,5.5v-4A1.5,1.5,0,0,0,14.5,0H1.5A1.5,1.5,0,0,0,0,1.5v4A1.5,1.5,0,0,0,1.5,7H13V8l-1.2-.9a.51.51,0,0,0-.7.1.5.5,0,0,0,.1.7L12.67,9,11.2,10.1a.5.5,0,0,0-.1.7.51.51,0,0,0,.4.2.49.49,0,0,0,.3-.1L13,10v1.5a.5.5,0,0,0,1,0V10l1.2.9a.49.49,0,0,0,.3.1.51.51,0,0,0,.4-.2.5.5,0,0,0-.1-.7L14.33,9,15.8,7.9a.5.5,0,1,0-.6-.8L14,8V7ZM1,5.5v-4A.5.5,0,0,1,1.5,1h13a.5.5,0,0,1,.5.5v4a.5.5,0,0,1-.5.5H1.5A.5.5,0,0,1,1,5.5Zm10-1a.5.5,0,0,1-.5.5h-7a.5.5,0,0,1,0-1h7A.5.5,0,0,1,11,4.5Zm2,0a.5.5,0,1,1-.5-.5A.5.5,0,0,1,13,4.5ZM10.5,12A1.5,1.5,0,1,0,12,13.5,1.5,1.5,0,0,0,10.5,12Zm0,2a.5.5,0,1,1,.5-.5A.5.5,0,0,1,10.5,14ZM2,12a2,2,0,1,0,2,2A2,2,0,0,0,2,12Zm0,3a1,1,0,1,1,1-1A1,1,0,0,1,2,15ZM8.72,10l-1.1.55,1.1.55A.5.5,0,0,1,8.5,12,.54.54,0,0,1,8.28,12L7,11.31V12.5a.5.5,0,0,1-1,0V11.31L4.72,12A.54.54,0,0,1,4.5,12a.5.5,0,0,1-.22-.95l1.1-.55L4.28,10a.5.5,0,1,1,.44-.9L6,9.69V8.5a.5.5,0,0,1,1,0V9.69l1.28-.64a.5.5,0,1,1,.44.9Z"/></g></g></svg>