<svg xmlns="http://www.w3.org/2000/svg" viewBox="0 0 16 16"><g id="Layer_2" data-name="Layer 2"><g id="Layer_1-2" data-name="Layer 1"><path d="M16,7a3,3,0,0,1-3,3,.5.5,0,0,1,0-1,2,2,0,0,0,0-4,2.37,2.37,0,0,0-.44,0h0A2,2,0,0,0,11,7a.5.5,0,0,1-1,0,3,3,0,0,1,1.88-2.78A4,4,0,0,0,8,1,4,4,0,0,0,4,5v.78a.5.5,0,0,1-.25.43.5.5,0,0,1-.5,0A1.47,1.47,0,0,0,2.5,6a1.5,1.5,0,0,0,0,3h1a.5.5,0,0,1,0,1h-1a2.5,2.5,0,0,1,0-5,2.73,2.73,0,0,1,.5,0V5a5,5,0,0,1,9.88-1h.19A3,3,0,0,1,16,7Zm-4,3.46s0,0,0,0v3s0,0,0,.05a.44.44,0,0,1,0,.1.2.2,0,0,1,0,.08.22.22,0,0,1,0,.08l-.07.07,0,0-3,2h0l0,0a.47.47,0,0,1-.42,0l0,0h0l-3-2,0,0-.07-.07a.22.22,0,0,1,0-.08.2.2,0,0,1,0-.08.44.44,0,0,1,0-.1s0,0,0-.05v-3s0,0,0,0V10.4l0-.05a.2.2,0,0,1,0-.08.09.09,0,0,1,0,0h0l0,0,.07-.07,0,0,3-2h0A.45.45,0,0,1,8.58,8h0a.67.67,0,0,1,.18.07h0l3,2,0,0,.07.07,0,0h0a.09.09,0,0,1,0,0,.2.2,0,0,1,0,.08l0,.05Zm-5.59,0,2.1,1.4,2.1-1.4L8.5,9.1ZM6,13.23l2,1.34v-1.8L6,11.43Zm3,1.34,2-1.34v-1.8L9,12.77Z"/></g></g></svg>