<svg id="backup-cloud-16px" xmlns="http://www.w3.org/2000/svg" width="16" height="10" viewBox="0 0 16 10">
  <path id="Path_169" data-name="Path 169" d="M30.854,8.646a.5.5,0,0,1-.708.708L28.5,7.707V10.5a.5.5,0,0,1-1,0V7.707L25.854,9.354a.5.5,0,0,1-.708-.708l2.5-2.5a.518.518,0,0,1,.163-.109.505.505,0,0,1,.382,0,.518.518,0,0,1,.163.109ZM36,10a3,3,0,0,1-3,3H22.5a2.5,2.5,0,0,1,0-5,2.46,2.46,0,0,1,.5.052V8a4.988,4.988,0,0,1,9.878-1A3,3,0,0,1,36,10Zm-1,0a1.984,1.984,0,0,0-2.436-1.948.5.5,0,0,1-.606-.44A3.988,3.988,0,0,0,24,8v.777a.5.5,0,0,1-.752.432A1.47,1.47,0,0,0,22.5,9a1.5,1.5,0,0,0,0,3H33A2,2,0,0,0,35,10Z" transform="translate(-20 -3)"/>
</svg>
