<svg id="battery-full-16px" xmlns="http://www.w3.org/2000/svg" width="16" height="9" viewBox="0 0 16 9">
  <path id="Path_168" data-name="Path 168" d="M34,11H26a1,1,0,0,1-1-1V7a1,1,0,0,1,1-1h8a1,1,0,0,1,1,1v3A1,1,0,0,1,34,11Zm3,.5V11h.5A1.5,1.5,0,0,0,39,9.5v-2A1.5,1.5,0,0,0,37.5,6H37V5.5A1.5,1.5,0,0,0,35.5,4h-11A1.5,1.5,0,0,0,23,5.5v6A1.5,1.5,0,0,0,24.5,13h11A1.5,1.5,0,0,0,37,11.5ZM35.5,5a.5.5,0,0,1,.5.5v1a.5.5,0,0,0,.5.5h1a.5.5,0,0,1,.5.5v2a.5.5,0,0,1-.5.5h-1a.5.5,0,0,0-.5.5v1a.5.5,0,0,1-.5.5h-11a.5.5,0,0,1-.5-.5v-6a.5.5,0,0,1,.5-.5Z" transform="translate(-23 -4)"/>
</svg>
