<svg id="calculator-16px" xmlns="http://www.w3.org/2000/svg" width="16" height="16" viewBox="0 0 16 16">
  <path id="Path_160" data-name="Path 160" d="M-8.5,0h-11A2.5,2.5,0,0,0-22,2.5v11A2.5,2.5,0,0,0-19.5,16h11A2.5,2.5,0,0,0-6,13.5V2.5A2.5,2.5,0,0,0-8.5,0Zm-11,1h11A1.5,1.5,0,0,1-7,2.5V5H-21V2.5A1.5,1.5,0,0,1-19.5,1Zm11,14h-11A1.5,1.5,0,0,1-21,13.5V6H-7v7.5A1.5,1.5,0,0,1-8.5,15ZM-8,7.5a.5.5,0,0,1-.5.5H-11v5.5a.5.5,0,0,1-.5.5.5.5,0,0,1-.5-.5v-6a.5.5,0,0,1,.5-.5h3A.5.5,0,0,1-8,7.5Zm-5,0a.5.5,0,0,1-.5.5H-15V9.5a.5.5,0,0,1-.5.5.5.5,0,0,1-.5-.5v-2a.5.5,0,0,1,.5-.5h2A.5.5,0,0,1-13,7.5Zm-4,0a.5.5,0,0,1-.5.5H-19V9.5a.5.5,0,0,1-.5.5.5.5,0,0,1-.5-.5v-2a.5.5,0,0,1,.5-.5h2A.5.5,0,0,1-17,7.5Zm4,4a.5.5,0,0,1-.5.5H-15v1.5a.5.5,0,0,1-.5.5.5.5,0,0,1-.5-.5v-2a.5.5,0,0,1,.5-.5h2A.5.5,0,0,1-13,11.5Zm-4,0a.5.5,0,0,1-.5.5H-19v1.5a.5.5,0,0,1-.5.5.5.5,0,0,1-.5-.5v-2a.5.5,0,0,1,.5-.5h2A.5.5,0,0,1-17,11.5Z" transform="translate(22)"/>
</svg>
