<svg id="calendar-16px" xmlns="http://www.w3.org/2000/svg" width="16" height="16" viewBox="0 0 16 16">
  <path id="Path_159" data-name="Path 159" d="M-9.5,2H-10V.5a.5.5,0,0,0-.5-.5.5.5,0,0,0-.5.5V2h-8V.5a.5.5,0,0,0-.5-.5.5.5,0,0,0-.5.5V2h-.5A2.5,2.5,0,0,0-23,4.5v9A2.5,2.5,0,0,0-20.5,16h11A2.5,2.5,0,0,0-7,13.5v-9A2.5,2.5,0,0,0-9.5,2Zm0,1A1.5,1.5,0,0,1-8,4.5V5h-2V3ZM-11,3V5h-8V3Zm-9.5,0h.5V5h-2V4.5A1.5,1.5,0,0,1-20.5,3Zm11,12h-11A1.5,1.5,0,0,1-22,13.5V6H-8v7.5A1.5,1.5,0,0,1-9.5,15ZM-19,10.5a.5.5,0,0,1-.5.5.5.5,0,0,1-.5-.5.5.5,0,0,1,.5-.5A.5.5,0,0,1-19,10.5Zm0,3a.5.5,0,0,1-.5.5.5.5,0,0,1-.5-.5.5.5,0,0,1,.5-.5A.5.5,0,0,1-19,13.5Zm3-6a.5.5,0,0,1-.5.5.5.5,0,0,1-.5-.5.5.5,0,0,1,.5-.5A.5.5,0,0,1-16,7.5Zm0,3a.5.5,0,0,1-.5.5.5.5,0,0,1-.5-.5.5.5,0,0,1,.5-.5A.5.5,0,0,1-16,10.5Zm0,3a.5.5,0,0,1-.5.5.5.5,0,0,1-.5-.5.5.5,0,0,1,.5-.5A.5.5,0,0,1-16,13.5Zm3-6a.5.5,0,0,1-.5.5.5.5,0,0,1-.5-.5.5.5,0,0,1,.5-.5A.5.5,0,0,1-13,7.5Zm0,3a.5.5,0,0,1-.5.5.5.5,0,0,1-.5-.5.5.5,0,0,1,.5-.5A.5.5,0,0,1-13,10.5Zm0,3a.5.5,0,0,1-.5.5.5.5,0,0,1-.5-.5.5.5,0,0,1,.5-.5A.5.5,0,0,1-13,13.5Zm3-6a.5.5,0,0,1-.5.5.5.5,0,0,1-.5-.5.5.5,0,0,1,.5-.5A.5.5,0,0,1-10,7.5Zm0,3a.5.5,0,0,1-.5.5.5.5,0,0,1-.5-.5.5.5,0,0,1,.5-.5A.5.5,0,0,1-10,10.5Z" transform="translate(23)"/>
</svg>
