<svg id="calendar-exclude-16px" xmlns="http://www.w3.org/2000/svg" width="16" height="16" viewBox="0 0 16 16">
  <path id="Path_155" data-name="Path 155" d="M-8.5,1H-9V.5A.5.5,0,0,0-9.5,0a.5.5,0,0,0-.5.5V1h-8V.5a.5.5,0,0,0-.5-.5.5.5,0,0,0-.5.5V1h-.5A2.5,2.5,0,0,0-22,3.5v10A2.5,2.5,0,0,0-19.5,16h11A2.5,2.5,0,0,0-6,13.5V3.5A2.5,2.5,0,0,0-8.5,1Zm0,1A1.5,1.5,0,0,1-7.092,3H-9V2ZM-10,2V3h-8V2Zm-9.5,0h.5V3h-1.908A1.5,1.5,0,0,1-19.5,2Zm11,13h-11A1.5,1.5,0,0,1-21,13.5V4H-7v9.5A1.5,1.5,0,0,1-8.5,15ZM-10,9.5a.5.5,0,0,1-.5.5h-7a.5.5,0,0,1-.5-.5.5.5,0,0,1,.5-.5h7A.5.5,0,0,1-10,9.5Z" transform="translate(22)"/>
</svg>
