<svg id="clalendar-check-16px" xmlns="http://www.w3.org/2000/svg" width="16" height="16" viewBox="0 0 16 16">
  <path id="Path_156" data-name="Path 156" d="M38.5,1H38V.5a.5.5,0,0,0-1,0V1H29V.5a.5.5,0,0,0-1,0V1h-.5A2.5,2.5,0,0,0,25,3.5v10A2.5,2.5,0,0,0,27.5,16h11A2.5,2.5,0,0,0,41,13.5V3.5A2.5,2.5,0,0,0,38.5,1Zm0,1a1.5,1.5,0,0,1,1.408,1H38V2ZM37,2V3H29V2ZM27.5,2H28V3H26.092A1.5,1.5,0,0,1,27.5,2Zm11,13h-11A1.5,1.5,0,0,1,26,13.5V4H40v9.5A1.5,1.5,0,0,1,38.5,15Zm-.646-8.854a.5.5,0,0,1,0,.708l-6,6a.5.5,0,0,1-.708,0l-3-3a.5.5,0,0,1,.708-.708L31.5,11.793l5.646-5.647A.5.5,0,0,1,37.854,6.146Z" transform="translate(-25)"/>
</svg>
