<svg xmlns="http://www.w3.org/2000/svg" viewBox="0 0 16 16"><g id="Layer_2" data-name="Layer 2"><g id="Layer_1-2" data-name="Layer 1"><path d="M15.5,15H15V5.5a.47.47,0,0,0-.15-.35l-2-2a.48.48,0,0,0-.7,0L10.5,4.79,7.85,2.15a.48.48,0,0,0-.7,0L4.5,4.79,2.85,3.15a.48.48,0,0,0-.7,0L1,4.29V.5A.5.5,0,0,0,.5,0,.5.5,0,0,0,0,.5v15a.5.5,0,0,0,.5.5h15a.5.5,0,0,0,0-1ZM1,11.65l1.14,1.2a.51.51,0,0,0,.35.15.41.41,0,0,0,.36-.15L5.5,10.21l1.65,1.64a.48.48,0,0,0,.7,0L11.5,8.21l2.5,2.5V15H1ZM2.5,4.21,4.15,5.85a.48.48,0,0,0,.7,0L7.5,3.21l2.65,2.64a.48.48,0,0,0,.7,0L12.5,4.21,14,5.71V9.29L11.85,7.15a.48.48,0,0,0-.7,0L7.5,10.79,5.85,9.15a.48.48,0,0,0-.7,0L2.51,11.78,1,10.2V5.71Z"/></g></g></svg>