<svg id="chart-line-16px" xmlns="http://www.w3.org/2000/svg" width="16" height="16" viewBox="0 0 16 16">
  <path id="Path_153" data-name="Path 153" d="M-7.5,8A.5.5,0,0,0-7,7.5v-3a.5.5,0,0,0-.038-.191.506.506,0,0,0-.271-.271A.5.5,0,0,0-7.5,4h-3a.5.5,0,0,0-.5.5.5.5,0,0,0,.5.5h1.793L-14.5,10.793l-1.646-1.647a.5.5,0,0,0-.708,0L-22,14.293V.5a.5.5,0,0,0-.5-.5.5.5,0,0,0-.5.5v15a.5.5,0,0,0,.038.191.506.506,0,0,0,.271.271A.5.5,0,0,0-22.5,16h15a.5.5,0,0,0,.5-.5.5.5,0,0,0-.5-.5H-21.293l4.793-4.793,1.646,1.647A.5.5,0,0,0-14.5,12a.5.5,0,0,0,.354-.146L-8,5.707V7.5A.5.5,0,0,0-7.5,8Z" transform="translate(23)"/>
</svg>
