<svg id="compact-file-16px" xmlns="http://www.w3.org/2000/svg" width="14" height="16" viewBox="0 0 14 16">
  <path id="Path_134" data-name="Path 134" d="M35.961,5.308a.5.5,0,0,0-.108-.162l-5-5A.507.507,0,0,0,30.5,0h-6A2.5,2.5,0,0,0,22,2.5v11A2.5,2.5,0,0,0,24.5,16h9A2.5,2.5,0,0,0,36,13.5v-8A.5.5,0,0,0,35.961,5.308ZM31,1.707,34.293,5H32.5A1.5,1.5,0,0,1,31,3.5ZM33.5,15h-9A1.5,1.5,0,0,1,23,13.5V2.5A1.5,1.5,0,0,1,24.5,1H25V3h1V1h4V3.5A2.5,2.5,0,0,0,32.5,6H35v7.5A1.5,1.5,0,0,1,33.5,15ZM26,9V7h1V9Zm-1,1h-.5a.5.5,0,0,0-.5.5v3a.5.5,0,0,0,.5.5h3a.5.5,0,0,0,.5-.5v-3a.5.5,0,0,0-.5-.5H26V9H25Zm2,1v2H25V11h2ZM26,5V3h1V5ZM25,5h1V7H25Z" transform="translate(-22)"/>
</svg>
