<svg xmlns="http://www.w3.org/2000/svg" viewBox="0 0 16 11.61"><g id="Layer_2" data-name="Layer 2"><g id="Layer_1-2" data-name="Layer 1"><path d="M8,7.8a2,2,0,1,1,2-2A2,2,0,0,1,8,7.8Zm0-3a1,1,0,1,0,1,1A1,1,0,0,0,8,4.8Zm5.66,6.66a8,8,0,0,0,0-11.31.5.5,0,0,0-.71,0,.48.48,0,0,0,0,.7,7,7,0,0,1,0,9.9.5.5,0,0,0,0,.71.49.49,0,0,0,.35.15A.51.51,0,0,0,13.66,11.46ZM11.54,9.34a5,5,0,0,0,0-7.07.5.5,0,0,0-.71,0,.48.48,0,0,0,0,.7,4,4,0,0,1,0,5.66.5.5,0,0,0,0,.71.49.49,0,0,0,.35.15A.51.51,0,0,0,11.54,9.34Zm-6.37,0a.5.5,0,0,0,0-.71A4,4,0,0,1,5.17,3a.48.48,0,0,0,0-.7.5.5,0,0,0-.71,0,5,5,0,0,0,0,7.07.51.51,0,0,0,.36.15A.49.49,0,0,0,5.17,9.34ZM3.05,11.46a.5.5,0,0,0,0-.71,7,7,0,0,1,0-9.9.48.48,0,0,0,0-.7.5.5,0,0,0-.71,0,8,8,0,0,0,0,11.31.51.51,0,0,0,.36.15A.49.49,0,0,0,3.05,11.46Z"/></g></g></svg>