<svg xmlns="http://www.w3.org/2000/svg" viewBox="0 0 16.12 16.12"><g id="Layer_2" data-name="Layer 2"><g id="Layer_1-2" data-name="Layer 1"><path d="M15.56,4.12a.56.56,0,0,0,.56-.56v-3A.56.56,0,0,0,15.56,0H.56A.56.56,0,0,0,0,.56v3a.56.56,0,0,0,.56.56H1.5V6H.56A.56.56,0,0,0,0,6.56v3a.56.56,0,0,0,.56.56H1.5V12H.56a.56.56,0,0,0-.56.56v3a.56.56,0,0,0,.56.56h15a.56.56,0,0,0,.56-.56v-3a.56.56,0,0,0-.56-.56h-.94V10.12h.94a.56.56,0,0,0,.56-.56v-3A.56.56,0,0,0,15.56,6h-.94V4.12Zm-14.44-3H15V3H1.12ZM15,15H1.12V13.12H15Zm-1.5-3H2.62V10.12H13.5ZM15,9H1.12V7.12H15ZM13.5,6H2.62V4.12H13.5Z"/></g></g></svg>