<svg xmlns="http://www.w3.org/2000/svg" viewBox="0 0 16 16"><g id="Layer_2" data-name="Layer 2"><g id="Layer_1-2" data-name="Layer 1"><path d="M6.07,7.49,8.51,9.93A2.09,2.09,0,0,1,8,10,2,2,0,0,1,6,8,2.09,2.09,0,0,1,6.07,7.49ZM10,8A2,2,0,0,0,8,6a2.09,2.09,0,0,0-.51.07L9.93,8.51A2.09,2.09,0,0,0,10,8Zm.83,3.53h0L13,13.66h0l2.2,2.19a.48.48,0,0,0,.7,0,.48.48,0,0,0,0-.7L14,13.29l.32-.39a8,8,0,0,0-.65-10.56.51.51,0,0,0-.71,0,.5.5,0,0,0,0,.71,7,7,0,0,1,.65,9.14l-.31.39-1.44-1.43a3.89,3.89,0,0,0,.32-.39,5,5,0,0,0-.63-6.3.51.51,0,0,0-.71,0,.5.5,0,0,0,0,.71A4,4,0,0,1,12,8a4.06,4.06,0,0,1-.56,2,4.43,4.43,0,0,1-.29.42l-6-6h0L3.05,2.34h0L.85.15a.48.48,0,0,0-.7,0,.48.48,0,0,0,0,.7L2,2.71l-.32.39a8,8,0,0,0,.65,10.56.54.54,0,0,0,.36.14.52.52,0,0,0,.35-.14.5.5,0,0,0,0-.71A7,7,0,0,1,2.4,3.81l.31-.39L4.15,4.85a3.89,3.89,0,0,0-.32.39,5,5,0,0,0,.63,6.3.54.54,0,0,0,.36.14.52.52,0,0,0,.35-.14.5.5,0,0,0,0-.71A4,4,0,0,1,4,8a4.06,4.06,0,0,1,.56-2,4.43,4.43,0,0,1,.29-.42Z"/></g></g></svg>