<svg id="drink-milk-coffee-16px" xmlns="http://www.w3.org/2000/svg" width="12" height="16" viewBox="0 0 12 16">
  <path id="Path_124" data-name="Path 124" d="M254-25.5a.469.469,0,0,0-.013-.063.422.422,0,0,0-.02-.1.467.467,0,0,0-.041-.084.479.479,0,0,0-.054-.079.477.477,0,0,0-.071-.063.408.408,0,0,0-.078-.052.419.419,0,0,0-.094-.033.47.47,0,0,0-.063-.022c-.011,0-.021,0-.032,0S253.512-26,253.5-26h-11a.321.321,0,0,0-.033.007c-.012,0-.022,0-.033,0a.47.47,0,0,0-.063.022.419.419,0,0,0-.094.033.408.408,0,0,0-.078.052.477.477,0,0,0-.071.063.479.479,0,0,0-.054.079.467.467,0,0,0-.041.084.422.422,0,0,0-.02.1A.469.469,0,0,0,242-25.5c0,.011.006.02.006.031s0,.023,0,.035l2,15a.581.581,0,0,0,.024.074.661.661,0,0,0,.025.075.5.5,0,0,0,.06.089.457.457,0,0,0,.048.059.451.451,0,0,0,.1.065.669.669,0,0,0,.057.035A.5.5,0,0,0,244.5-10h7a.5.5,0,0,0,.185-.037.669.669,0,0,0,.057-.035.451.451,0,0,0,.1-.065.457.457,0,0,0,.048-.059.5.5,0,0,0,.06-.089.661.661,0,0,0,.025-.075.581.581,0,0,0,.024-.074l2-15c0-.012,0-.023,0-.035S254-25.489,254-25.5Zm-10.193,6.014,7.339,7.34a.615.615,0,0,0,.063.041l-.147,1.1h-.355l-6.656-6.656Zm7.566,6.152L244.707-20h1.586l5.267,5.267ZM247.707-20h1.586l2.62,2.62-.187,1.4Zm3,0h1.555l-.183,1.372Zm-7.1-1-.533-4h9.856l-.533,4Zm1.125,8.437L246.293-11h-1.355Zm-.218-1.632-.244-1.83L249.293-11h-1.586Z" transform="translate(-242 26)"/>
</svg>
