<svg id="drink-mocha-16px" xmlns="http://www.w3.org/2000/svg" width="16" height="16" viewBox="0 0 16 16">
  <path id="Path_122" data-name="Path 122" d="M111.5-24H109v-1.5a.5.5,0,0,0-.5-.5h-12a.5.5,0,0,0-.5.5v9A6.494,6.494,0,0,0,99.052-11H96.5a.5.5,0,0,0-.5.5.5.5,0,0,0,.5.5h12a.5.5,0,0,0,.5-.5.5.5,0,0,0-.5-.5h-2.552a6.5,6.5,0,0,0,3.029-5.048A3.5,3.5,0,0,0,112-19.5v-4A.5.5,0,0,0,111.5-24ZM108-25v3H97v-3ZM97-21a1,1,0,0,0,1,1,1,1,0,0,0,1-1h2a1,1,0,0,0,1,1,1,1,0,0,0,1-1h2a1,1,0,0,0,1,1,1,1,0,0,0,1-1h1v1a1,1,0,0,0-1,1,1,1,0,0,0,1,1v1h-1a1,1,0,0,0-1-1,1,1,0,0,0-1,1h-2a1,1,0,0,0-1-1,1,1,0,0,0-1,1H99a1,1,0,0,0-1-1,1,1,0,0,0-1,1Zm14,1.5a2.5,2.5,0,0,1-2,2.45V-23h2ZM99-19a1,1,0,0,1,1-1,1,1,0,0,1,1,1,1,1,0,0,1-1,1A1,1,0,0,1,99-19Zm4,0a1,1,0,0,1,1-1,1,1,0,0,1,1,1,1,1,0,0,1-1,1A1,1,0,0,1,103-19Z" transform="translate(-96 26)"/>
</svg>
