<svg id="drink-milk-16px" xmlns="http://www.w3.org/2000/svg" width="12" height="16" viewBox="0 0 12 16">
  <path id="Path_123" data-name="Path 123" d="M206-25.5a.469.469,0,0,0-.013-.063.422.422,0,0,0-.02-.1.467.467,0,0,0-.041-.084.479.479,0,0,0-.054-.079.477.477,0,0,0-.071-.063.408.408,0,0,0-.078-.052.419.419,0,0,0-.094-.033.47.47,0,0,0-.063-.022c-.011,0-.021,0-.032,0S205.512-26,205.5-26h-11a.321.321,0,0,0-.033.007c-.012,0-.022,0-.033,0a.47.47,0,0,0-.063.022.419.419,0,0,0-.094.033.408.408,0,0,0-.078.052.477.477,0,0,0-.071.063.479.479,0,0,0-.054.079.467.467,0,0,0-.041.084.422.422,0,0,0-.02.1A.469.469,0,0,0,194-25.5c0,.011.006.02.006.031s0,.023,0,.035l2,15a.581.581,0,0,0,.024.074.661.661,0,0,0,.025.075.5.5,0,0,0,.06.089.457.457,0,0,0,.048.059.451.451,0,0,0,.1.065.669.669,0,0,0,.057.035A.5.5,0,0,0,196.5-10h7a.5.5,0,0,0,.185-.037.669.669,0,0,0,.057-.035.451.451,0,0,0,.1-.065.457.457,0,0,0,.048-.059.5.5,0,0,0,.06-.089.661.661,0,0,0,.025-.075.581.581,0,0,0,.024-.074l2-15c0-.012,0-.023,0-.035S206-25.489,206-25.5ZM203.062-11h-6.124L195.6-21.008l1.554-.518a4.277,4.277,0,0,1,2.684,0,5.253,5.253,0,0,0,3.316,0l1.368-.455Zm1.611-12.085-1.831.611a4.277,4.277,0,0,1-2.684,0,5.253,5.253,0,0,0-3.316,0l-1.373.457-.4-2.983h9.856Z" transform="translate(-194 26)"/>
</svg>
