<svg id="edit-16px" xmlns="http://www.w3.org/2000/svg" width="16" height="16" viewBox="0 0 16 16">
  <path id="Path_121" data-name="Path 121" d="M-18.146-43.854a.5.5,0,0,0-.708,0l-8,8a.518.518,0,0,0-.109.163A.5.5,0,0,0-27-35.5v3a.5.5,0,0,0,.5.5h3a.5.5,0,0,0,.191-.038.518.518,0,0,0,.163-.109l8-8a.5.5,0,0,0,0-.708ZM-23.707-33H-26v-2.293l7.5-7.5,2.293,2.293Zm12.561-11.854-3-3a.5.5,0,0,0-.708,0l-2,2a.5.5,0,0,0,0,.708l3,3A.5.5,0,0,0-13.5-42a.5.5,0,0,0,.354-.146l2-2A.5.5,0,0,0-11.146-44.854ZM-13.5-43.207-15.793-45.5l1.293-1.293,2.293,2.293Z" transform="translate(27 48)"/>
</svg>
