<svg id="electric-tower-16px" xmlns="http://www.w3.org/2000/svg" width="16" height="15.999" viewBox="0 0 16 15.999">
  <path id="Path_117" data-name="Path 117" d="M-7.038,15.308-11.75,4H-9v.5a.5.5,0,0,0,.5.5A.5.5,0,0,0-8,4.5V4h.5a.491.491,0,0,0,.248-.075A.373.373,0,0,0-7.2,3.892a.485.485,0,0,0,.166-.2l0,0a.6.6,0,0,0,.013-.072A.481.481,0,0,0-7,3.5V3.495a.456.456,0,0,0-.027-.132A.513.513,0,0,0-7.04,3.3a.519.519,0,0,0-.042-.062.539.539,0,0,0-.065-.1.311.311,0,0,0-.038-.025.467.467,0,0,0-.126-.083l0,0-7.5-3A.382.382,0,0,0-14.88.024.454.454,0,0,0-15,0a.489.489,0,0,0-.113.021.457.457,0,0,0-.072.014l-7.5,3,0,0a.467.467,0,0,0-.126.083.311.311,0,0,0-.038.025.539.539,0,0,0-.065.1.519.519,0,0,0-.042.062.513.513,0,0,0-.012.059A.456.456,0,0,0-23,3.495V3.5a.481.481,0,0,0,.023.114.6.6,0,0,0,.013.072l0,0a.485.485,0,0,0,.166.2.373.373,0,0,0,.048.033A.491.491,0,0,0-22.5,4h.5v.5a.5.5,0,0,0,.5.5.5.5,0,0,0,.5-.5V4h2.75l-4.712,11.308a.5.5,0,0,0,.27.653A.481.481,0,0,0-22.5,16a.5.5,0,0,0,.462-.308L-21.75,15h13.5l.288.692A.5.5,0,0,0-7.5,16a.481.481,0,0,0,.192-.039A.5.5,0,0,0-7.038,15.308ZM-19.9,3-15,1.039-10.1,3H-19.9Zm7.1,7L-15,11l-2.192-1Zm-5.341-1L-15,6.3-11.851,9Zm3.917-3.357L-12.7,4.327l1.7,4.093ZM-15,4.985-16.149,4h2.3Zm-.768.658-3.24,2.777,1.7-4.093ZM-19.608,10l3.4,1.545-5.061,2.3,1.6-3.846ZM-15,12.1l4.192,1.9h-8.384Zm1.208-.55,3.4-1.545h.058l1.6,3.846Z" transform="translate(23 -0.001)"/>
</svg>
