<svg id="file-copy-16px" xmlns="http://www.w3.org/2000/svg" width="16" height="16" viewBox="0 0 16 16">
  <path id="Path_107" data-name="Path 107" d="M37.961,5.308a.5.5,0,0,0-.108-.162l-5-5A.507.507,0,0,0,32.5,0h-4A2.5,2.5,0,0,0,26,2.5V3H24.5A2.5,2.5,0,0,0,22,5.5v8A2.5,2.5,0,0,0,24.5,16h7A2.5,2.5,0,0,0,34,13.5V13h1.5A2.5,2.5,0,0,0,38,10.5v-5A.5.5,0,0,0,37.961,5.308ZM33,1.707,36.293,5H34.5A1.5,1.5,0,0,1,33,3.5ZM33,13.5A1.5,1.5,0,0,1,31.5,15h-7A1.5,1.5,0,0,1,23,13.5v-8A1.5,1.5,0,0,1,24.5,4H26v6.5A2.5,2.5,0,0,0,28.5,13H33ZM35.5,12h-7A1.5,1.5,0,0,1,27,10.5v-8A1.5,1.5,0,0,1,28.5,1H32V3.5A2.5,2.5,0,0,0,34.5,6H37v4.5A1.5,1.5,0,0,1,35.5,12Z" transform="translate(-22)"/>
</svg>
