<svg xmlns="http://www.w3.org/2000/svg" viewBox="0 0 14.12 16.12"><g id="Layer_2" data-name="Layer 2"><g id="Layer_1-2" data-name="Layer 1"><path d="M13.79,3.05l-6.5-3a.55.55,0,0,0-.47,0l-6.5,3A.57.57,0,0,0,0,3.56,14.88,14.88,0,0,0,5.77,15.27l1,.73a.54.54,0,0,0,.68,0l.95-.73A14.88,14.88,0,0,0,14.12,3.56.56.56,0,0,0,13.79,3.05ZM7.67,14.38l-.61.47-.61-.47A13.72,13.72,0,0,1,1.12,3.91L7.06,1.18,13,3.91A13.75,13.75,0,0,1,7.67,14.38ZM7.06,3a.56.56,0,0,1,.56.56V7h2.94a.56.56,0,0,1,0,1.12H7.62v4.44a.56.56,0,1,1-1.12,0V8.12H3.56A.56.56,0,1,1,3.56,7H6.5V3.56A.56.56,0,0,1,7.06,3Z"/></g></g></svg>