<svg id="group-16px" xmlns="http://www.w3.org/2000/svg" width="16" height="16" viewBox="0 0 16 16">
  <path id="Path_98" data-name="Path 98" d="M-21,2a2,2,0,0,0-2-2,2,2,0,0,0-2,2,2,2,0,0,0,2,2A2,2,0,0,0-21,2Zm-2,1a1,1,0,0,1-1-1,1,1,0,0,1,1-1,1,1,0,0,1,1,1A1,1,0,0,1-23,3Zm10-1a2,2,0,0,0-2-2,2,2,0,0,0-2,2,2,2,0,0,0,2,2A2,2,0,0,0-13,2Zm-2,1a1,1,0,0,1-1-1,1,1,0,0,1,1-1,1,1,0,0,1,1,1A1,1,0,0,1-15,3Zm1.5,1h-3a2.493,2.493,0,0,0-2.027,1.048A2.95,2.95,0,0,0-19,5a2.95,2.95,0,0,0-.473.048A2.493,2.493,0,0,0-21.5,4h-3A2.5,2.5,0,0,0-27,6.5,1.5,1.5,0,0,0-25.5,8H-22a3,3,0,0,0,3,3,3,3,0,0,0,3-3h3.5A1.5,1.5,0,0,0-11,6.5,2.5,2.5,0,0,0-13.5,4ZM-17,8a2,2,0,0,1-2,2,2,2,0,0,1-2-2,2,2,0,0,1,2-2A2,2,0,0,1-17,8Zm-8.5-1a.5.5,0,0,1-.5-.5A1.5,1.5,0,0,1-24.5,5h3a1.491,1.491,0,0,1,1.02.406A3,3,0,0,0-21.816,7Zm13,0h-3.684A3,3,0,0,0-17.52,5.406,1.491,1.491,0,0,1-16.5,5h3A1.5,1.5,0,0,1-12,6.5.5.5,0,0,1-12.5,7ZM-25,14.5A1.5,1.5,0,0,0-23.5,16h9A1.5,1.5,0,0,0-13,14.5,3.5,3.5,0,0,0-16.5,11h-5A3.5,3.5,0,0,0-25,14.5Zm8.5-2.5A2.5,2.5,0,0,1-14,14.5a.5.5,0,0,1-.5.5h-9a.5.5,0,0,1-.5-.5A2.5,2.5,0,0,1-21.5,12Z" transform="translate(27)"/>
</svg>
