<svg id="hand-16px" xmlns="http://www.w3.org/2000/svg" width="16" height="16" viewBox="0 0 16 16">
  <path id="Path_97" data-name="Path 97" d="M35.5,4a1.5,1.5,0,0,0-.5.085V4a2,2,0,0,0-3-1.731V2a2,2,0,0,0-4,0v.269A2,2,0,0,0,25,4v6.5a2.5,2.5,0,0,0-4,2,.5.5,0,0,0,.2.4l2.934,2.2a4.52,4.52,0,0,0,2.7.9H32.5A4.505,4.505,0,0,0,37,11.5v-6A1.5,1.5,0,0,0,35.5,4Zm.5,7.5A3.5,3.5,0,0,1,32.5,15H26.833a3.528,3.528,0,0,1-2.1-.7l-2.715-2.037A1.5,1.5,0,0,1,24.4,11.3l.8.6a.5.5,0,0,0,.8-.4V4a1,1,0,0,1,2,0V8.5a.5.5,0,0,0,1,0V2a1,1,0,0,1,2,0V8.5a.5.5,0,0,0,1,0V4a1,1,0,0,1,2,0V8.5a.5.5,0,0,0,1,0v-3a.5.5,0,0,1,1,0Z" transform="translate(-21)"/>
</svg>
