<svg id="hardware-16px" xmlns="http://www.w3.org/2000/svg" width="16" height="16" viewBox="0 0 16 16">
  <path id="Path_94" data-name="Path 94" d="M37.5,0h-13A1.5,1.5,0,0,0,23,1.5v13A1.5,1.5,0,0,0,24.5,16h13A1.5,1.5,0,0,0,39,14.5V1.5A1.5,1.5,0,0,0,37.5,0Zm0,15H28v-.5a.5.5,0,0,0-1,0V15H26V12.5a.5.5,0,0,0-1,0V15h-.5a.5.5,0,0,1-.5-.5V1.5a.5.5,0,0,1,.5-.5H29V9.5a.5.5,0,0,0,.5.5h1.592a1.5,1.5,0,1,0,0-1H30V1h7.5a.5.5,0,0,1,.5.5V2H35.5a.5.5,0,0,0,0,1H38V4H36.5a.5.5,0,0,0,0,1H38V6H33V4.908a1.5,1.5,0,1,0-1,0V6.5a.5.5,0,0,0,.5.5H38v7.5A.5.5,0,0,1,37.5,15ZM32,9.5a.5.5,0,1,1,.5.5A.5.5,0,0,1,32,9.5Zm0-6a.5.5,0,1,1,.5.5A.5.5,0,0,1,32,3.5ZM35.5,11a1.5,1.5,0,0,0-1.408,1H28.707L27,10.293V4.908a1.5,1.5,0,1,0-1,0V10.5a.5.5,0,0,0,.146.354l2,2A.5.5,0,0,0,28.5,13h5.592A1.5,1.5,0,1,0,35.5,11Zm-9-8a.5.5,0,1,1-.5.5A.5.5,0,0,1,26.5,3Zm9,10a.5.5,0,1,1,.5-.5A.5.5,0,0,1,35.5,13Z" transform="translate(-23)"/>
</svg>
