<svg id="help-square-16px" xmlns="http://www.w3.org/2000/svg" width="16" height="16" viewBox="0 0 16 16">
  <path id="Path_90" data-name="Path 90" d="M-10.5,16h-11A2.5,2.5,0,0,1-24,13.5V2.5A2.5,2.5,0,0,1-21.5,0h11A2.5,2.5,0,0,1-8,2.5v11A2.5,2.5,0,0,1-10.5,16Zm-11-15A1.5,1.5,0,0,0-23,2.5v11A1.5,1.5,0,0,0-21.5,15h11A1.5,1.5,0,0,0-9,13.5V2.5A1.5,1.5,0,0,0-10.5,1Zm6,8.5V8.958A3,3,0,0,0-13,6a3,3,0,0,0-3-3,3,3,0,0,0-3,3,.5.5,0,0,0,.5.5A.5.5,0,0,0-18,6a2,2,0,0,1,2-2,2,2,0,0,1,2,2,2,2,0,0,1-2,2,.5.5,0,0,0-.5.5v1a.5.5,0,0,0,.5.5A.5.5,0,0,0-15.5,9.5Zm0,3v-1A.5.5,0,0,0-16,11a.5.5,0,0,0-.5.5v1a.5.5,0,0,0,.5.5A.5.5,0,0,0-15.5,12.5Z" transform="translate(24)"/>
</svg>
