<svg id="home-16px" xmlns="http://www.w3.org/2000/svg" width="16" height="16" viewBox="0 0 16 16">
  <path id="Path_87" data-name="Path 87" d="M-7.159,7.134l-7.5-7a.5.5,0,0,0-.682,0l-7.5,7a.5.5,0,0,0-.024.707.5.5,0,0,0,.706.025L-21,6.784V15.5a.5.5,0,0,0,.5.5h4a.5.5,0,0,0,.5-.5V11h2v4.5a.5.5,0,0,0,.5.5h4a.5.5,0,0,0,.5-.5V6.784l1.159,1.082A.5.5,0,0,0-7.5,8a.494.494,0,0,0,.365-.159A.5.5,0,0,0-7.159,7.134ZM-10,15h-3V10.5a.5.5,0,0,0-.5-.5h-3a.5.5,0,0,0-.5.5V15h-3V5.851l5-4.667,5,4.667Z" transform="translate(23 0)"/>
</svg>
