<svg id="id-16px" xmlns="http://www.w3.org/2000/svg" width="16" height="12" viewBox="0 0 16 12">
  <path id="Path_86" data-name="Path 86" d="M-9.5,2h-15a.5.5,0,0,0-.5.5v11a.5.5,0,0,0,.5.5h15a.5.5,0,0,0,.5-.5V2.5A.5.5,0,0,0-9.5,2ZM-10,13H-24V3h14Zm-7-7.5a.5.5,0,0,1,.5-.5h5a.5.5,0,0,1,.5.5.5.5,0,0,1-.5.5h-5A.5.5,0,0,1-17,5.5Zm6,3a.5.5,0,0,1-.5.5h-4a.5.5,0,0,1-.5-.5.5.5,0,0,1,.5-.5h4A.5.5,0,0,1-11,8.5Zm0,3a.5.5,0,0,1-.5.5h-3a.5.5,0,0,1-.5-.5.5.5,0,0,1,.5-.5h3A.5.5,0,0,1-11,11.5Zm-11.5.5h5a.5.5,0,0,0,.5-.5V11a2.989,2.989,0,0,0-1.562-2.616A1.991,1.991,0,0,0-18,7a2,2,0,0,0-2-2,2,2,0,0,0-2,2,1.991,1.991,0,0,0,.562,1.384A2.99,2.99,0,0,0-23,11v.5A.5.5,0,0,0-22.5,12ZM-21,7a1,1,0,0,1,1-1,1,1,0,0,1,1,1,1,1,0,0,1-1,1A1,1,0,0,1-21,7Zm1,2a2,2,0,0,1,2,2h-4A2,2,0,0,1-20,9Z" transform="translate(25 -2)"/>
</svg>
