<svg xmlns="http://www.w3.org/2000/svg" viewBox="0 0 16 16"><g id="Layer_2" data-name="Layer 2"><g id="Layer_1-2" data-name="Layer 1"><path d="M14.5,0H1.5A1.5,1.5,0,0,0,0,1.5v14a.5.5,0,0,0,.5.5h15a.5.5,0,0,0,.5-.5V1.5A1.5,1.5,0,0,0,14.5,0ZM1,1.5A.5.5,0,0,1,1.5,1h13a.5.5,0,0,1,.5.5V9H1ZM15,15H1V10H15ZM2,13.5a.5.5,0,0,1,.5-.5h9a.5.5,0,0,1,0,1h-9A.5.5,0,0,1,2,13.5Zm11,0v-2a.5.5,0,0,1,1,0v2a.5.5,0,0,1-1,0Zm-11-2a.5.5,0,0,1,.5-.5h2a.5.5,0,0,1,0,1h-2A.5.5,0,0,1,2,11.5Zm4,0a.5.5,0,0,1,.5-.5h2a.5.5,0,0,1,0,1h-2A.5.5,0,0,1,6,11.5Zm4,0a.5.5,0,0,1,.5-.5h1a.5.5,0,0,1,0,1h-1A.5.5,0,0,1,10,11.5Z"/></g></g></svg>