<svg xmlns="http://www.w3.org/2000/svg" viewBox="0 0 16 11"><g id="Layer_2" data-name="Layer 2"><g id="Layer_1-2" data-name="Layer 1"><path d="M15.5,8H15V1.5A1.5,1.5,0,0,0,13.5,0H2.5A1.5,1.5,0,0,0,1,1.5V8H.5a.5.5,0,0,0-.5.5v1A1.5,1.5,0,0,0,1.5,11h13A1.5,1.5,0,0,0,16,9.5v-1A.5.5,0,0,0,15.5,8Zm-1,2H1.5A.5.5,0,0,1,1,9.5V9H5.5a.5.5,0,0,0,0-1H2V1.5A.5.5,0,0,1,2.5,1h11a.5.5,0,0,1,.5.5V8H10.5a.5.5,0,0,0,0,1H15v.5A.5.5,0,0,1,14.5,10ZM9,8.5a.5.5,0,0,1-.5.5h-1a.5.5,0,0,1,0-1h1A.5.5,0,0,1,9,8.5Zm1.5-3.29.65.64a.48.48,0,0,0,.7,0,.48.48,0,0,0,0-.7l-.64-.65.64-.65A.52.52,0,0,0,12,3.67h0a.17.17,0,0,0,0-.07.43.43,0,0,0,0-.11s0-.06,0-.09a.32.32,0,0,0,0-.09s0-.06-.06-.09,0,0,0-.06h0l-.08-.06L11.67,3h0l-3-1H8.31l-.09,0-.07.06-.06.07L8,2.31v0A.13.13,0,0,0,8,2.4a.34.34,0,0,0,0,.1.34.34,0,0,0,0,.1.13.13,0,0,0,0,.06l1,3H9a.52.52,0,0,0,.12.18s0,0,0,0l.05,0A.5.5,0,0,0,9.5,6a.45.45,0,0,0,.16,0h0l.09,0,.08-.06h0Zm-.78-.64L9.29,3.29l1.28.43Z"/></g></g></svg>