<svg id="map-pin-check-16px" xmlns="http://www.w3.org/2000/svg" width="14.882" height="16" viewBox="0 0 14.882 16">
  <path id="Path_72" data-name="Path 72" d="M-15,16a1.48,1.48,0,0,1-1.048-.433l-3.818-3.818a6.837,6.837,0,0,1-2.016-4.867,6.833,6.833,0,0,1,2.016-4.865A6.837,6.837,0,0,1-15,0a6.837,6.837,0,0,1,4.866,2.016A6.833,6.833,0,0,1-8.118,6.881a6.837,6.837,0,0,1-2.016,4.867.5.5,0,0,1-.707,0,.5.5,0,0,1,0-.707,5.889,5.889,0,0,0,0-8.318A5.843,5.843,0,0,0-15,1a5.843,5.843,0,0,0-4.159,1.723,5.889,5.889,0,0,0,0,8.318l3.818,3.818a.483.483,0,0,0,.682,0,.5.5,0,0,1,.707,0,.5.5,0,0,1,0,.707A1.48,1.48,0,0,1-15,16Zm3.277-9.117A3.281,3.281,0,0,0-15,3.6a3.281,3.281,0,0,0-3.277,3.278A3.281,3.281,0,0,0-15,10.159,3.281,3.281,0,0,0-11.723,6.882Zm-1,0A2.28,2.28,0,0,1-15,9.159a2.28,2.28,0,0,1-2.277-2.277A2.28,2.28,0,0,1-15,4.6,2.28,2.28,0,0,1-12.723,6.882Zm2.577,8.972,3-3a.5.5,0,0,0,0-.708.5.5,0,0,0-.708,0L-10.5,14.793l-1.646-1.647a.5.5,0,0,0-.708,0,.5.5,0,0,0,0,.708l2,2A.5.5,0,0,0-10.5,16,.5.5,0,0,0-10.146,15.854Z" transform="translate(21.882)"/>
</svg>
