<svg xmlns="http://www.w3.org/2000/svg" viewBox="0 0 16 16"><g id="Layer_2" data-name="Layer 2"><g id="Layer_1-2" data-name="Layer 1"><path d="M14,4a2,2,0,0,0-2,2,2.4,2.4,0,0,0,0,.28l-2,.82a2.5,2.5,0,0,0-1.57-1V3.93a2,2,0,1,0-1,0V6.05A2.51,2.51,0,0,0,5.92,7.11L4,6.29A2.85,2.85,0,0,0,4,6,2,2,0,1,0,2,8a2,2,0,0,0,1.58-.79l2,.83a2.31,2.31,0,0,0,0,.46,2.51,2.51,0,0,0,.69,1.72L4.75,12.15A1.86,1.86,0,0,0,4,12a2,2,0,1,0,1.55.75l1.46-2A2.34,2.34,0,0,0,8,11a2.51,2.51,0,0,0,1-.23l1.43,2A2,2,0,0,0,10,14a2,2,0,1,0,2-2,2,2,0,0,0-.73.14l-1.43-2A2.47,2.47,0,0,0,10.5,8.5,2.61,2.61,0,0,0,10.45,8l2-.82A2,2,0,1,0,14,4ZM2,7a1,1,0,1,1,.92-.61h0A1,1,0,0,1,2,7ZM7,2A1,1,0,1,1,8,3,1,1,0,0,1,7,2ZM4,15a1,1,0,1,1,1-1A1,1,0,0,1,4,15ZM7.17,9.75h0A1.5,1.5,0,1,1,9.38,7.92h0a1.52,1.52,0,0,1,.11.57A1.5,1.5,0,0,1,8,10,1.45,1.45,0,0,1,7.17,9.75ZM13,14a1,1,0,1,1-1-1A1,1,0,0,1,13,14Zm1-7a1,1,0,1,1,1-1A1,1,0,0,1,14,7Z"/></g></g></svg>