<svg id="money-2-16px" xmlns="http://www.w3.org/2000/svg" width="16" height="16" viewBox="0 0 16 16">
  <path id="Path_65" data-name="Path 65" d="M-12.179,3.178A6.972,6.972,0,0,0-18.022,0,6.985,6.985,0,0,0-25,6.977a6.972,6.972,0,0,0,3.179,5.845A6.972,6.972,0,0,0-15.978,16,6.985,6.985,0,0,0-9,9.023,6.972,6.972,0,0,0-12.179,3.178Zm.133,3.8a5.984,5.984,0,0,1-5.976,5.978A5.985,5.985,0,0,1-24,6.977,5.984,5.984,0,0,1-18.022,1,5.983,5.983,0,0,1-12.046,6.977ZM-15.978,15A5.938,5.938,0,0,1-19.6,13.769a6.983,6.983,0,0,0,1.574.186,6.985,6.985,0,0,0,6.976-6.978A6.967,6.967,0,0,0-11.231,5.4,5.939,5.939,0,0,1-10,9.023,5.984,5.984,0,0,1-15.978,15ZM-18.522,2.5V3H-19a2,2,0,0,0-2,2,2,2,0,0,0,2,2h.478V9.5h-.228A1.252,1.252,0,0,1-20,8.25a.5.5,0,0,0-.5-.5.5.5,0,0,0-.5.5,2.253,2.253,0,0,0,2.25,2.25h.228v1a.5.5,0,0,0,.5.5.5.5,0,0,0,.5-.5v-1h.272A2.253,2.253,0,0,0-15,8.25,2.253,2.253,0,0,0-17.25,6h-.272V4H-17a1,1,0,0,1,1,1v.5a.5.5,0,0,0,.5.5.5.5,0,0,0,.5-.5V5a2,2,0,0,0-2-2h-.522V2.5a.5.5,0,0,0-.5-.5A.5.5,0,0,0-18.522,2.5ZM-16,8.25A1.252,1.252,0,0,1-17.25,9.5h-.272V7h.272A1.252,1.252,0,0,1-16,8.25ZM-18.522,6H-19a1,1,0,0,1-1-1,1,1,0,0,1,1-1h.478Z" transform="translate(25)"/>
</svg>
