<svg id="money-16px" xmlns="http://www.w3.org/2000/svg" width="16" height="16" viewBox="0 0 16 16">
  <path id="Path_66" data-name="Path 66" d="M-10-20a8.009,8.009,0,0,0-8,8,8.009,8.009,0,0,0,8,8,8.009,8.009,0,0,0,8-8A8.009,8.009,0,0,0-10-20Zm0,15a7.008,7.008,0,0,1-7-7,7.008,7.008,0,0,1,7-7,7.008,7.008,0,0,1,7,7A7.008,7.008,0,0,1-10-5Zm.75-11h-.272v-.5a.5.5,0,0,0-.5-.5.5.5,0,0,0-.5.5v.5h-.228A2.253,2.253,0,0,0-13-13.75a2.253,2.253,0,0,0,2.25,2.25h.228V-9h-.228A1.252,1.252,0,0,1-12-10.25v-.25a.5.5,0,0,0-.5-.5.5.5,0,0,0-.5.5v.25A2.253,2.253,0,0,0-10.75-8h.228v.5a.5.5,0,0,0,.5.5.5.5,0,0,0,.5-.5V-8h.272A2.253,2.253,0,0,0-7-10.25,2.253,2.253,0,0,0-9.25-12.5h-.272V-15h.272A1.252,1.252,0,0,1-8-13.75v.25a.5.5,0,0,0,.5.5.5.5,0,0,0,.5-.5v-.25A2.253,2.253,0,0,0-9.25-16ZM-8-10.25A1.252,1.252,0,0,1-9.25-9h-.272v-2.5h.272A1.252,1.252,0,0,1-8-10.25Zm-2.522-2.25h-.228A1.252,1.252,0,0,1-12-13.75,1.252,1.252,0,0,1-10.75-15h.228Z" transform="translate(18 20)"/>
</svg>
