<svg id="pin-16px" xmlns="http://www.w3.org/2000/svg" width="16" height="16" viewBox="0 0 16 16">
  <path id="Path_61" data-name="Path 61" d="M-7.146,7.146l-7-7a.5.5,0,0,0-.545-.108A.5.5,0,0,0-15,.5V3.293L-17.707,6H-22.5a.5.5,0,0,0-.462.309.5.5,0,0,0,.108.545L-18.707,11l-4.147,4.146a.5.5,0,0,0,0,.708A.5.5,0,0,0-22.5,16a.5.5,0,0,0,.354-.146L-18,11.707l4.146,4.147A.5.5,0,0,0-13.5,16a.489.489,0,0,0,.191-.038A.5.5,0,0,0-13,15.5V10.707L-10.293,8H-7.5a.5.5,0,0,0,.462-.309A.5.5,0,0,0-7.146,7.146ZM-10.5,7a.5.5,0,0,0-.354.146l-3,3A.5.5,0,0,0-14,10.5v3.793L-21.293,7H-17.5a.5.5,0,0,0,.354-.146l3-3A.5.5,0,0,0-14,3.5V1.707L-8.707,7Z" transform="translate(23 0)"/>
</svg>
