<svg id="plus-circle-16px" xmlns="http://www.w3.org/2000/svg" width="16" height="16" viewBox="0 0 16 16">
  <path id="Path_59" data-name="Path 59" d="M-13,0a8.009,8.009,0,0,0-8,8,8.009,8.009,0,0,0,8,8A8.009,8.009,0,0,0-5,8,8.009,8.009,0,0,0-13,0Zm0,15a7.008,7.008,0,0,1-7-7,7.008,7.008,0,0,1,7-7A7.008,7.008,0,0,1-6,8,7.008,7.008,0,0,1-13,15Zm5-7a.5.5,0,0,1-.5.5h-4v4a.5.5,0,0,1-.5.5.5.5,0,0,1-.5-.5v-4h-4A.5.5,0,0,1-18,8a.5.5,0,0,1,.5-.5h4v-4A.5.5,0,0,1-13,3a.5.5,0,0,1,.5.5v4h4A.5.5,0,0,1-8,8Z" transform="translate(21)"/>
</svg>
