<svg id="power-plug-16px" xmlns="http://www.w3.org/2000/svg" width="16" height="16" viewBox="0 0 16 16">
  <path id="Path_57" data-name="Path 57" d="M-7.146,4.146a.5.5,0,0,0-.708,0L-11.5,7.793-14.793,4.5-11.146.854a.5.5,0,0,0,0-.708.5.5,0,0,0-.708,0L-15.5,3.793l-.646-.647a.5.5,0,0,0-.708,0l-1,1a4.733,4.733,0,0,0-.317,6.318l-4.683,4.682a.5.5,0,0,0,0,.708A.5.5,0,0,0-22.5,16a.5.5,0,0,0,.354-.146l4.682-4.683A4.718,4.718,0,0,0-14.5,12.24a4.732,4.732,0,0,0,3.354-1.386l1-1a.5.5,0,0,0,0-.708l-.647-.646,3.647-3.646A.5.5,0,0,0-7.146,4.146Zm-10,6a3.746,3.746,0,0,1,0-5.292l.646-.647L-11.207,9.5l-.647.646A3.746,3.746,0,0,1-17.146,10.146Z" transform="translate(23 0)"/>
</svg>
