<svg id="request-added-16px" xmlns="http://www.w3.org/2000/svg" width="16" height="16" viewBox="0 0 16 16">
  <path id="Path_48" data-name="Path 48" d="M-6.5,0h-11A2.5,2.5,0,0,0-20,2.5v8A2.5,2.5,0,0,0-17.5,13h.5v2.5a.5.5,0,0,0,.309.462A.489.489,0,0,0-16.5,16a.5.5,0,0,0,.354-.146L-13.293,13H-6.5A2.5,2.5,0,0,0-4,10.5v-8A2.5,2.5,0,0,0-6.5,0ZM-5,10.5A1.5,1.5,0,0,1-6.5,12h-7a.5.5,0,0,0-.354.146L-16,14.293V12.5a.5.5,0,0,0-.5-.5h-1A1.5,1.5,0,0,1-19,10.5v-8A1.5,1.5,0,0,1-17.5,1h11A1.5,1.5,0,0,1-5,2.5Zm-3.5-4A.5.5,0,0,1-9,7h-2.5V9.5a.5.5,0,0,1-.5.5.5.5,0,0,1-.5-.5V7H-15a.5.5,0,0,1-.5-.5A.5.5,0,0,1-15,6h2.5V3.5A.5.5,0,0,1-12,3a.5.5,0,0,1,.5.5V6H-9A.5.5,0,0,1-8.5,6.5Z" transform="translate(20)"/>
</svg>
