<svg id="request-sent-16px" xmlns="http://www.w3.org/2000/svg" width="16" height="16" viewBox="0 0 16 16">
  <path id="Path_50" data-name="Path 50" d="M-11.5,0h-11A2.5,2.5,0,0,0-25,2.5v8A2.5,2.5,0,0,0-22.5,13h.5v2.5a.5.5,0,0,0,.309.462A.489.489,0,0,0-21.5,16a.5.5,0,0,0,.354-.146L-18.293,13H-11.5A2.5,2.5,0,0,0-9,10.5v-8A2.5,2.5,0,0,0-11.5,0ZM-10,10.5A1.5,1.5,0,0,1-11.5,12h-7a.5.5,0,0,0-.354.146L-21,14.293V12.5a.5.5,0,0,0-.5-.5h-1A1.5,1.5,0,0,1-24,10.5v-8A1.5,1.5,0,0,1-22.5,1h11A1.5,1.5,0,0,1-10,2.5Zm-2.038-3.809a.518.518,0,0,1-.109.163l-2,2A.5.5,0,0,1-14.5,9a.5.5,0,0,1-.354-.146.5.5,0,0,1,0-.708L-13.707,7H-18.5A1.5,1.5,0,0,0-20,8.5a.5.5,0,0,1-.5.5.5.5,0,0,1-.5-.5A2.5,2.5,0,0,1-18.5,6h4.793l-1.147-1.146a.5.5,0,0,1,0-.708.5.5,0,0,1,.708,0l2,2a.518.518,0,0,1,.109.163A.505.505,0,0,1-12.038,6.691Z" transform="translate(25)"/>
</svg>
