<svg id="rocket-16px" xmlns="http://www.w3.org/2000/svg" width="16" height="16" viewBox="0 0 16 16">
  <path id="Path_54" data-name="Path 54" d="M-3.5,0H-7.028a6.257,6.257,0,0,0-5.466,3.2l-1.137,1.806A5.5,5.5,0,0,0-19,10.5a.5.5,0,0,0,.5.5h1.793L-14,13.707V15.5a.5.5,0,0,0,.5.5,5.5,5.5,0,0,0,5.493-5.369l1.782-1.122A6.271,6.271,0,0,0-3,4.028V.5A.5.5,0,0,0-3.5,0ZM-4,4.028a5.284,5.284,0,0,1-2.734,4.62l-6.695,4.216-2.435-2.435,4.23-6.719A5.274,5.274,0,0,1-7.028,1H-4ZM-14.305,6.076-16.776,10h-1.2A4.508,4.508,0,0,1-14.305,6.076Zm1.305,8.9v-1.2l3.924-2.471A4.506,4.506,0,0,1-13,14.972Zm2.077-9.857A2.811,2.811,0,0,0-8.115,7.923,2.81,2.81,0,0,0-5.308,5.115,2.81,2.81,0,0,0-8.115,2.308,2.811,2.811,0,0,0-10.923,5.115Zm2.808,1.808A1.81,1.81,0,0,1-9.923,5.115,1.81,1.81,0,0,1-8.115,3.308,1.809,1.809,0,0,1-6.308,5.115,1.809,1.809,0,0,1-8.115,6.923Z" transform="translate(19)"/>
</svg>
