<svg xmlns="http://www.w3.org/2000/svg" viewBox="0 0 16.12 16.12"><g id="Layer_2" data-name="Layer 2"><g id="Layer_1-2" data-name="Layer 1"><path d="M15.56,4.12a.56.56,0,0,0,.56-.56v-3A.56.56,0,0,0,15.56,0H.56A.56.56,0,0,0,0,.56v3a.56.56,0,0,0,.56.56H1.5V6H.56A.56.56,0,0,0,0,6.56v3a.56.56,0,0,0,.56.56H1.5V12H.56a.56.56,0,0,0-.56.56v3a.56.56,0,0,0,.56.56h4a.56.56,0,1,0,0-1.12H1.12V13.12H4.56a.56.56,0,1,0,0-1.12H2.62V10.12H6.56A.56.56,0,1,0,6.56,9H1.12V7.12H15V9h-.44a.56.56,0,1,0,0,1.12h1a.56.56,0,0,0,.56-.56v-3A.56.56,0,0,0,15.56,6h-.94V4.12Zm-14.44-3H15V3H1.12ZM13.5,6H2.62V4.12H13.5ZM14,11.89a3.31,3.31,0,0,0-3.23-2.53,3.36,3.36,0,0,0-3.35,3.17,1.77,1.77,0,1,0-.13,3.53H14A2.09,2.09,0,0,0,14,11.89ZM14,15.06H7.33a.77.77,0,1,1,0-1.53.77.77,0,0,1,.38.1.5.5,0,0,0,.5,0,.52.52,0,0,0,.25-.44v-.49a2.35,2.35,0,0,1,2.35-2.35,2.31,2.31,0,0,1,2.25,1.75A2.09,2.09,0,0,0,11.89,14a.51.51,0,0,0,.5.5.5.5,0,0,0,.5-.5A1.09,1.09,0,0,1,14,12.9,1,1,0,0,1,15.06,14,1.09,1.09,0,0,1,14,15.06Z"/></g></g></svg>