<svg id="sliders-16px" xmlns="http://www.w3.org/2000/svg" width="16" height="16" viewBox="0 0 16 16">
  <path id="Path_37" data-name="Path 37" d="M568-384v-1h1.5a.5.5,0,0,1,.5.5.5.5,0,0,1-.5.5Zm-13.5,0H566v1.5a.5.5,0,0,0,.5.5.5.5,0,0,0,.5-.5v-4a.5.5,0,0,0-.5-.5.5.5,0,0,0-.5.5v1.5H554.5a.5.5,0,0,0-.5.5A.5.5,0,0,0,554.5-384Zm15,4.5H557v1h12.5a.5.5,0,0,0,.5-.5A.5.5,0,0,0,569.5-379.5Zm0,5.5H564v1h5.5a.5.5,0,0,0,.5-.5A.5.5,0,0,0,569.5-374Zm-6.5-1v-.5a.5.5,0,0,0-.5-.5.5.5,0,0,0-.5.5v1.5h-7.5a.5.5,0,0,0-.5.5.5.5,0,0,0,.5.5H562v1.5a.5.5,0,0,0,.5.5.5.5,0,0,0,.5-.5Zm-7-6a.5.5,0,0,0-.5-.5.5.5,0,0,0-.5.5v1.5h-.5a.5.5,0,0,0-.5.5.5.5,0,0,0,.5.5h.5v1.5a.5.5,0,0,0,.5.5.5.5,0,0,0,.5-.5Z" transform="translate(-554 387)"/>
</svg>
