<svg id="sort-down-16px" xmlns="http://www.w3.org/2000/svg" width="16" height="16" viewBox="0 0 16 16">
  <path id="Path_35" data-name="Path 35" d="M-16.146,12.146a.5.5,0,0,1,0,.708l-3,3a.518.518,0,0,1-.163.109A.5.5,0,0,1-19.5,16a.5.5,0,0,1-.191-.038.518.518,0,0,1-.163-.109l-3-3a.5.5,0,0,1,0-.708.5.5,0,0,1,.708,0L-20,14.293V.5a.5.5,0,0,1,.5-.5.5.5,0,0,1,.5.5V14.293l2.146-2.147A.5.5,0,0,1-16.146,12.146ZM-14.5,3h1a.5.5,0,0,0,.5-.5.5.5,0,0,0-.5-.5h-1a.5.5,0,0,0-.5.5A.5.5,0,0,0-14.5,3Zm0,4h3a.5.5,0,0,0,.5-.5.5.5,0,0,0-.5-.5h-3a.5.5,0,0,0-.5.5A.5.5,0,0,0-14.5,7Zm0,4h5a.5.5,0,0,0,.5-.5.5.5,0,0,0-.5-.5h-5a.5.5,0,0,0-.5.5A.5.5,0,0,0-14.5,11Zm7,3h-7a.5.5,0,0,0-.5.5.5.5,0,0,0,.5.5h7a.5.5,0,0,0,.5-.5A.5.5,0,0,0-7.5,14Z" transform="translate(23)"/>
</svg>
