<svg id="table-3-16px" xmlns="http://www.w3.org/2000/svg" width="16" height="16" viewBox="0 0 16 16">
  <path id="Path_29" data-name="Path 29" d="M37.5,0h-11A2.5,2.5,0,0,0,24,2.5v11A2.5,2.5,0,0,0,26.5,16h11A2.5,2.5,0,0,0,40,13.5V2.5A2.5,2.5,0,0,0,37.5,0Zm-11,1h11A1.5,1.5,0,0,1,39,2.5V4H25V2.5A1.5,1.5,0,0,1,26.5,1ZM25,13.5V5h4V15H26.5A1.5,1.5,0,0,1,25,13.5ZM37.5,15H30V5h9v8.5A1.5,1.5,0,0,1,37.5,15ZM26,6.5a.5.5,0,0,1,.5-.5h1a.5.5,0,0,1,0,1h-1A.5.5,0,0,1,26,6.5Zm2,3a.5.5,0,0,1-.5.5h-1a.5.5,0,0,1,0-1h1A.5.5,0,0,1,28,9.5Zm0,3a.5.5,0,0,1-.5.5h-1a.5.5,0,0,1,0-1h1A.5.5,0,0,1,28,12.5Zm10-6a.5.5,0,0,1-.5.5h-6a.5.5,0,0,1,0-1h6A.5.5,0,0,1,38,6.5Zm0,3a.5.5,0,0,1-.5.5h-6a.5.5,0,0,1,0-1h6A.5.5,0,0,1,38,9.5Zm0,3a.5.5,0,0,1-.5.5h-6a.5.5,0,0,1,0-1h6A.5.5,0,0,1,38,12.5Z" transform="translate(-24)"/>
</svg>
