<svg id="thermometer-16px" xmlns="http://www.w3.org/2000/svg" width="11.001" height="15.999" viewBox="0 0 11.001 15.999">
  <path id="Path_26" data-name="Path 26" d="M30,3a3,3,0,0,0-6,0V9.359A4,4,0,0,0,26.071,15.9,4.223,4.223,0,0,0,27,16a4,4,0,0,0,3-6.64ZM28.871,14.346a3.032,3.032,0,0,1-2.579.573A3,3,0,0,1,24.857,9.9.5.5,0,0,0,25,9.556V3a2,2,0,0,1,4,0V9.556a.5.5,0,0,0,.143.349,3,3,0,0,1-.272,4.441ZM31,2.5a.5.5,0,0,1,.5-.5h2a.5.5,0,0,1,0,1h-2A.5.5,0,0,1,31,2.5Zm3,3a.5.5,0,0,1-.5.5h-2a.5.5,0,0,1,0-1h2A.5.5,0,0,1,34,5.5Zm0,3a.5.5,0,0,1-.5.5h-2a.5.5,0,0,1,0-1h2A.5.5,0,0,1,34,8.5ZM29,12a2,2,0,1,1-3-1.723V7a1,1,0,0,1,2,0v3.277A1.994,1.994,0,0,1,29,12Z" transform="translate(-22.999)"/>
</svg>
