<svg xmlns="http://www.w3.org/2000/svg" viewBox="0 0 16 16"><g id="Layer_2" data-name="Layer 2"><g id="Layer_1-2" data-name="Layer 1"><path d="M16,7a2,2,0,0,0-1.34-1.89A1.94,1.94,0,0,0,15,4a2,2,0,0,0-1.16-1.82A1.51,1.51,0,0,0,14,1.5,1.5,1.5,0,0,0,12.5,0h-7A3.47,3.47,0,0,0,2.89,1.2.49.49,0,0,0,2.5,1H.5a.5.5,0,0,0-.5.5v8a.5.5,0,0,0,.5.5h2A.51.51,0,0,0,3,9.67l1.2,1.2A4.59,4.59,0,0,1,5.35,13L6,15.62A.49.49,0,0,0,6.5,16h.44a2.5,2.5,0,0,0,2-1,2.47,2.47,0,0,0,.45-2.15L9.14,12H14a2,2,0,0,0,2-2,2,2,0,0,0-.68-1.5A2,2,0,0,0,16,7ZM2,9H1V2H2V9ZM12.5,9H14a1,1,0,0,1,0,2H7.5a.5.5,0,0,0,0,1h.61l.28,1.14a1.44,1.44,0,0,1-.27,1.28A1.49,1.49,0,0,1,6.94,15H6.89l-.57-2.28a5.44,5.44,0,0,0-1.45-2.55L3,8.29V3.5A2.5,2.5,0,0,1,5.5,1h7a.5.5,0,0,1,0,1h-1a.5.5,0,0,0,0,1H13a1,1,0,0,1,0,2h-.5a.5.5,0,0,0,0,1H14a1,1,0,0,1,0,2H12.5a.5.5,0,0,0,0,1Z"/></g></g></svg>