<svg xmlns="http://www.w3.org/2000/svg" viewBox="0 0 16 16"><g id="Layer_2" data-name="Layer 2"><g id="Layer_1-2" data-name="Layer 1"><path d="M0,4.31a.36.36,0,0,1,.11-.16l4-4a.48.48,0,0,1,.7,0,.48.48,0,0,1,0,.7L1.71,4H15.5a.5.5,0,0,1,0,1H1.71L4.85,8.15a.48.48,0,0,1,0,.7.48.48,0,0,1-.7,0l-4-4A.36.36,0,0,1,0,4.69.5.5,0,0,1,0,4.31Zm15.92,7a.36.36,0,0,0-.11-.16l-4-4a.49.49,0,0,0-.7.7L14.29,11H.5a.5.5,0,0,0,0,1H14.29l-3.14,3.15a.48.48,0,0,0,0,.7.48.48,0,0,0,.7,0l4-4a.36.36,0,0,0,.11-.16A.5.5,0,0,0,16,11.31Z"/></g></g></svg>