<svg id="upload-16px" xmlns="http://www.w3.org/2000/svg" width="16" height="16.021" viewBox="0 0 16 16.021">
  <path id="Path_19" data-name="Path 19" d="M26.172,4.877a.5.5,0,0,1-.05-.7l3.5-4.029a.519.519,0,0,1,.756,0l3.5,4.029a.5.5,0,0,1-.756.656L30.5,1.809V12.5a.5.5,0,0,1-1,0V1.809L26.878,4.828A.5.5,0,0,1,26.172,4.877ZM35,12.5a.5.5,0,1,0-.5.5A.5.5,0,0,0,35,12.5ZM35.5,8h-2a.5.5,0,0,0,0,1h2A1.5,1.5,0,0,1,37,10.5v3A1.5,1.5,0,0,1,35.5,15h-11A1.5,1.5,0,0,1,23,13.5v-3A1.5,1.5,0,0,1,24.5,9h2a.5.5,0,0,0,0-1h-2A2.5,2.5,0,0,0,22,10.5v3A2.5,2.5,0,0,0,24.5,16h11A2.5,2.5,0,0,0,38,13.5v-3A2.5,2.5,0,0,0,35.5,8Z" transform="translate(-22 0.021)"/>
</svg>
