<svg xmlns="http://www.w3.org/2000/svg" viewBox="0 0 16 16"><g id="Layer_2" data-name="Layer 2"><g id="Layer_1-2" data-name="Layer 1"><path d="M8,8A4,4,0,1,0,4,4,4,4,0,0,0,8,8ZM8,1A3,3,0,1,1,5,4,3,3,0,0,1,8,1Zm4,7a4,4,0,1,0,4,4A4,4,0,0,0,12,8Zm.71,4,1.73-1.73a3,3,0,0,1,0,3.46Zm1-2.44L12,11.29,10.27,9.56a3,3,0,0,1,3.46,0Zm-4.17.71L11.29,12,9.56,13.73a3,3,0,0,1,0-3.46Zm.71,4.17L12,12.71l1.73,1.73a3,3,0,0,1-3.46,0ZM8,15.5a.5.5,0,0,1-.5.5h-6A1.5,1.5,0,0,1,0,14.5,4.51,4.51,0,0,1,4.5,10h2a.5.5,0,0,1,0,1h-2A3.5,3.5,0,0,0,1,14.5a.5.5,0,0,0,.5.5h6A.5.5,0,0,1,8,15.5Z"/></g></g></svg>