<svg xmlns="http://www.w3.org/2000/svg" viewBox="0 0 16 16"><g id="Layer_2" data-name="Layer 2"><g id="Layer_1-2" data-name="Layer 1"><path d="M15.5,0H.5A.5.5,0,0,0,0,.5v13a.5.5,0,0,0,.5.5H1v1.5a.5.5,0,0,0,.5.5h2a.5.5,0,0,0,.5-.5V14h8v1.5a.5.5,0,0,0,.5.5h2a.5.5,0,0,0,.5-.5V14h.5a.5.5,0,0,0,.5-.5V.5A.5.5,0,0,0,15.5,0ZM3,15H2V14H3Zm11,0H13V14h1Zm1-2H1V1H15ZM2.5,12h7a.5.5,0,0,0,.5-.5v-9A.5.5,0,0,0,9.5,2h-7a.5.5,0,0,0-.5.5v9A.5.5,0,0,0,2.5,12Zm2-6H9V9H8V7.5a.5.5,0,0,0-1,0V9H6V7.5A.5.5,0,0,0,5.5,7h-1a.5.5,0,0,0-.5.5V9H3V6ZM3,11V10H9v1ZM9,3V5H8V4.5a.5.5,0,0,0-1,0V5H6V4.5A.5.5,0,0,0,5.5,4h-1a.5.5,0,0,0-.5.5V5H3V3Zm2.5,3h2a.5.5,0,0,0,.5-.5v-3a.5.5,0,0,0-.5-.5h-2a.5.5,0,0,0-.5.5v3A.5.5,0,0,0,11.5,6ZM12,3h1V5H12Zm-.5,7h2a.5.5,0,0,0,.5-.5v-2a.5.5,0,0,0-.5-.5h-2a.5.5,0,0,0-.5.5v2A.5.5,0,0,0,11.5,10ZM12,8h1V9H12Zm-1,3.5a.5.5,0,0,1,.5-.5h2a.5.5,0,0,1,0,1h-2A.5.5,0,0,1,11,11.5Z"/></g></g></svg>