<svg id="vídeo-off-16px" xmlns="http://www.w3.org/2000/svg" width="16" height="16" viewBox="0 0 16 16">
  <path id="Path_15" data-name="Path 15" d="M35.5,4A1.5,1.5,0,0,1,37,5.5V9.709l1,1v0l2.146,2.146a.518.518,0,0,0,.163.109A.5.5,0,0,0,41,12.5v-8a.5.5,0,0,0-.691-.462.518.518,0,0,0-.163.109L38,6.293V5.5A2.5,2.5,0,0,0,35.5,3H30.291l1,1ZM40,5.707v5.586l-2-2V7.707Zm-4.31,7.274.808.808a2.482,2.482,0,0,1-1,.211h-6A2.5,2.5,0,0,1,27,11.5v-6a2.482,2.482,0,0,1,.211-1l.808.808A1.491,1.491,0,0,0,28,5.5v6A1.5,1.5,0,0,0,29.5,13h6A1.491,1.491,0,0,0,35.69,12.981Zm5.164,2.165a.5.5,0,0,1-.708.708l-15-15a.5.5,0,0,1,.708-.708Z" transform="translate(-25)"/>
</svg>
