<svg id="wifi-16px" xmlns="http://www.w3.org/2000/svg" width="18.678" height="15.994" viewBox="0 0 18.678 15.994">
  <path id="Path_13" data-name="Path 13" d="M-18,16a3,3,0,0,1-3-3,3,3,0,0,1,3-3,3,3,0,0,1,3,3A3,3,0,0,1-18,16Zm0-5a2,2,0,0,0-2,2,2,2,0,0,0,2,2,2,2,0,0,0,2-2A2,2,0,0,0-18,11Zm9.192-6.485a.5.5,0,0,0,0-.707,13.013,13.013,0,0,0-18.384,0,.5.5,0,0,0,0,.707.5.5,0,0,0,.707,0,12.013,12.013,0,0,1,16.97,0,.5.5,0,0,0,.354.146A.5.5,0,0,0-8.808,4.515Zm-4.95,4.949a.5.5,0,0,0,0-.707A5.959,5.959,0,0,0-18,7a5.959,5.959,0,0,0-4.242,1.757.5.5,0,0,0,0,.707.5.5,0,0,0,.707,0A4.966,4.966,0,0,1-18,8a4.966,4.966,0,0,1,3.535,1.464.5.5,0,0,0,.354.147A.5.5,0,0,0-13.758,9.464Zm2.122-2.121a.5.5,0,0,0,0-.707A8.941,8.941,0,0,0-18,4a8.941,8.941,0,0,0-6.364,2.636.5.5,0,0,0,0,.707.5.5,0,0,0,.707,0A7.948,7.948,0,0,1-18,5a7.948,7.948,0,0,1,5.657,2.343.5.5,0,0,0,.354.147A.5.5,0,0,0-11.636,7.343Z" transform="translate(27.339 -0.006)"/>
</svg>
