<svg id="x-circle-16px" xmlns="http://www.w3.org/2000/svg" width="16" height="16" viewBox="0 0 16 16">
  <path id="Path_8" data-name="Path 8" d="M-16,0a8.009,8.009,0,0,0-8,8,8.009,8.009,0,0,0,8,8A8.009,8.009,0,0,0-8,8,8.009,8.009,0,0,0-16,0Zm0,15a7.008,7.008,0,0,1-7-7,7.008,7.008,0,0,1,7-7A7.008,7.008,0,0,1-9,8,7.008,7.008,0,0,1-16,15Zm3.854-10.146L-15.293,8l3.147,3.146a.5.5,0,0,1,0,.708A.5.5,0,0,1-12.5,12a.5.5,0,0,1-.354-.146L-16,8.707l-3.146,3.147A.5.5,0,0,1-19.5,12a.5.5,0,0,1-.354-.146.5.5,0,0,1,0-.708L-16.707,8l-3.147-3.146a.5.5,0,0,1,0-.708.5.5,0,0,1,.708,0L-16,7.293l3.146-3.147a.5.5,0,0,1,.708,0A.5.5,0,0,1-12.146,4.854Z" transform="translate(24)"/>
</svg>
